<svg width="24" height="24" viewBox="0 0 24 24" fill="none" xmlns="http://www.w3.org/2000/svg">
<path d="M8 7C8 5.89543 8.89543 5 10 5H14C15.1046 5 16 5.89543 16 7V9.5C16 10.3284 15.3284 11 14.5 11C12.567 11 11 12.567 11 14.5V17H13V14.5C13 13.6716 13.6716 13 14.5 13C16.433 13 18 11.433 18 9.5V7C18 4.79086 16.2091 3 14 3H10C7.79086 3 6 4.79086 6 7V9H8V7Z" fill="#090E1D"/>
<path d="M11.5 19C11.2239 19 11 19.2239 11 19.5V20.5C11 20.7761 11.2239 21 11.5 21H12.5C12.7761 21 13 20.7761 13 20.5V19.5C13 19.2239 12.7761 19 12.5 19H11.5Z" fill="#090E1D"/>
</svg>
