<svg width="24" height="24" viewBox="0 0 24 24" fill="none" xmlns="http://www.w3.org/2000/svg">
<path fill-rule="evenodd" clip-rule="evenodd" d="M6 2C3.79086 2 2 3.79086 2 6V18C2 20.2091 3.79086 22 6 22H18C20.2091 22 22 20.2091 22 18V6C22 3.79086 20.2091 2 18 2H6ZM10.9394 14.4749L8.70711 16.7071L7.29289 15.2929L9.52514 13.0606C10.892 11.6938 13.1081 11.6938 14.4749 13.0606L16.7071 15.2929L15.2929 16.7071L13.0607 14.4749C12.4749 13.8891 11.5251 13.8891 10.9394 14.4749ZM15.2929 7.29289L13.0606 9.52514C12.4749 10.1109 11.5251 10.1109 10.9393 9.52514L8.70711 7.29291L7.29289 8.70713L9.52512 10.9394C10.8919 12.3062 13.108 12.3062 14.4749 10.9394L16.7071 8.70711L15.2929 7.29289Z" fill="#090E1D"/>
</svg>
