<svg width="24" height="24" viewBox="0 0 24 24" fill="none" xmlns="http://www.w3.org/2000/svg">
<path fill-rule="evenodd" clip-rule="evenodd" d="M6 2C3.79086 2 2 3.79086 2 6V18C2 20.2091 3.79086 22 6 22H18C20.2091 22 22 20.2091 22 18V6C22 3.79086 20.2091 2 18 2H6ZM10.5 8C10.2239 8 10 8.22386 10 8.5V10H8V8.5C8 7.11929 9.11929 6 10.5 6H13.5C14.8807 6 16 7.11929 16 8.5V10.5C16 11.8807 14.8807 13 13.5 13C13.2239 13 13 13.2239 13 13.5V15H11V13.5C11 12.1193 12.1193 11 13.5 11C13.7761 11 14 10.7761 14 10.5V8.5C14 8.22386 13.7761 8 13.5 8H10.5ZM11.5 16C11.2239 16 11 16.2239 11 16.5V17.5C11 17.7761 11.2239 18 11.5 18H12.5C12.7761 18 13 17.7761 13 17.5V16.5C13 16.2239 12.7761 16 12.5 16H11.5Z" fill="#090E1D"/>
</svg>
