<svg width="24" height="24" viewBox="0 0 24 24" fill="none" xmlns="http://www.w3.org/2000/svg">
<path d="M13.4142 10.0001L12 8.58588L10.5858 10.0001L12 11.4143L13.4142 10.0001Z" fill="#090E1D"/>
<path fill-rule="evenodd" clip-rule="evenodd" d="M14.8285 3.41425C13.2664 1.85215 10.7337 1.85215 9.17161 3.41425L5.41425 7.17161C3.85215 8.73371 3.85215 11.2664 5.41425 12.8285L12 19.4142L18.5858 12.8285C20.1479 11.2664 20.1479 8.73371 18.5858 7.17161L14.8285 3.41425ZM10.5858 7.17166C11.3668 6.39061 12.6332 6.39061 13.4142 7.17166L14.8284 8.58588C15.6095 9.36692 15.6095 10.6333 14.8284 11.4143L13.4142 12.8285C12.6332 13.6096 11.3668 13.6096 10.5858 12.8285L9.17157 11.4143C8.39052 10.6333 8.39052 9.36692 9.17157 8.58588L10.5858 7.17166Z" fill="#090E1D"/>
<path d="M5 20V22H19V20H5Z" fill="#090E1D"/>
</svg>
