<svg width="24" height="24" viewBox="0 0 24 24" fill="none" xmlns="http://www.w3.org/2000/svg">
<path fill-rule="evenodd" clip-rule="evenodd" d="M7 2C4.79086 2 3 3.79086 3 6V18C3 20.2091 4.79086 22 7 22H17C19.2091 22 21 20.2091 21 18V10H17C14.7909 10 13 8.20914 13 6V2H7ZM11 9H8V7H11V9ZM8 13H16V11H8V13ZM16 17H8V15H16V17Z" fill="#090E1D"/>
<path d="M15 2.19791V6C15 7.10457 15.8954 8 17 8H20.8021C20.6085 7.40767 20.2773 6.86309 19.8284 6.41421L16.5858 3.17157C16.1369 2.72269 15.5923 2.39152 15 2.19791Z" fill="#090E1D"/>
</svg>
