<svg width="24" height="24" viewBox="0 0 24 24" fill="none" xmlns="http://www.w3.org/2000/svg">
<path d="M13 14H11V16H13V14Z" fill="#090E1D"/>
<path fill-rule="evenodd" clip-rule="evenodd" d="M9.5 2C8.11929 2 7 3.11929 7 4.5L7 8C4.79086 8 3 9.79086 3 12V18C3 20.2091 4.79086 22 7 22H17C19.2091 22 21 20.2091 21 18V12C21 9.79086 19.2091 8 17 8L17 4.5C17 3.11929 15.8807 2 14.5 2H9.5ZM15 8V4.5C15 4.22386 14.7761 4 14.5 4H9.5C9.22386 4 9 4.22386 9 4.5V8H15ZM9 14C9 12.8954 9.89543 12 11 12H13C14.1046 12 15 12.8954 15 14V16C15 17.1046 14.1046 18 13 18H11C9.89543 18 9 17.1046 9 16V14Z" fill="#090E1D"/>
</svg>
