<svg width="24" height="24" viewBox="0 0 24 24" fill="none" xmlns="http://www.w3.org/2000/svg">
<path d="M7 8C7 5.79086 8.79086 4 11 4H13C15.2091 4 17 5.79086 17 8V10C17 12.2091 15.2091 14 13 14H11C8.79086 14 7 12.2091 7 10V8Z" fill="#090E1D"/>
<path d="M5 19C5 17.8954 5.89543 17 7 17H17C18.1046 17 19 17.8954 19 19V22H21V19C21 16.7909 19.2091 15 17 15H7C4.79086 15 3 16.7909 3 19V22H5V19Z" fill="#090E1D"/>
<path d="M20.5 10H18V8H20.5C21.8807 8 23 9.11929 23 10.5V12H21V10.5C21 10.2239 20.7761 10 20.5 10Z" fill="#090E1D"/>
<path d="M19 4C18.4477 4 18 4.44772 18 5V6C18 6.55228 18.4477 7 19 7H20C20.5523 7 21 6.55228 21 6V5C21 4.44772 20.5523 4 20 4H19Z" fill="#090E1D"/>
<path d="M3.5 10H6V8H3.5C2.11929 8 1 9.11929 1 10.5V12H3V10.5C3 10.2239 3.22386 10 3.5 10Z" fill="#090E1D"/>
<path d="M5 4C5.55228 4 6 4.44772 6 5V6C6 6.55228 5.55228 7 5 7H4C3.44772 7 3 6.55228 3 6V5C3 4.44772 3.44772 4 4 4H5Z" fill="#090E1D"/>
</svg>
