<svg width="24" height="24" viewBox="0 0 24 24" fill="none" xmlns="http://www.w3.org/2000/svg">
<path d="M4.5 5C3.11929 5 2 6.11929 2 7.5V11.5C2 12.8807 3.11929 14 4.5 14H5C5.27614 14 5.5 14.2239 5.5 14.5V16.5C5.5 17.8807 6.61929 19 8 19H8.5C9.88071 19 11 17.8807 11 16.5V7.5C11 6.11929 9.88071 5 8.5 5H4.5Z" fill="#090E1D"/>
<path d="M12 7.5C12 6.11929 13.1193 5 14.5 5H18.5C19.8807 5 21 6.11929 21 7.5V16.5C21 17.8807 19.8807 19 18.5 19H18C16.6193 19 15.5 17.8807 15.5 16.5V14.5C15.5 14.2239 15.2761 14 15 14H14.5C13.1193 14 12 12.8807 12 11.5V7.5Z" fill="#090E1D"/>
</svg>
