<svg width="24" height="24" viewBox="0 0 24 24" fill="none" xmlns="http://www.w3.org/2000/svg">
<path d="M3 5H2V3H3C5.20914 3 7 4.79086 7 7V15C7 16.1046 7.89543 17 9 17H18C19.1046 17 20 16.1046 20 15V10C20 8.89543 19.1046 8 18 8H9V6H18C20.2091 6 22 7.79086 22 10V15C22 17.2091 20.2091 19 18 19H9C6.79086 19 5 17.2091 5 15V7C5 5.89543 4.10457 5 3 5Z" fill="#090E1D"/>
<path d="M7 20.5C7 20.2239 7.22386 20 7.5 20H8.5C8.77614 20 9 20.2239 9 20.5V21.5C9 21.7761 8.77614 22 8.5 22H7.5C7.22386 22 7 21.7761 7 21.5V20.5Z" fill="#090E1D"/>
<path d="M18.5 20C18.2239 20 18 20.2239 18 20.5V21.5C18 21.7761 18.2239 22 18.5 22H19.5C19.7761 22 20 21.7761 20 21.5V20.5C20 20.2239 19.7761 20 19.5 20H18.5Z" fill="#090E1D"/>
</svg>
