<svg width="24" height="24" viewBox="0 0 24 24" fill="none" xmlns="http://www.w3.org/2000/svg">
<path d="M12 10C10.8955 10 10 10.8954 10 12C10 13.1046 10.8955 14 12 14C13.1046 14 14 13.1046 14 12C14 10.8954 13.1046 10 12 10Z" fill="#090E1D"/>
<path fill-rule="evenodd" clip-rule="evenodd" d="M10.7129 2C9.21462 2 8.00003 3.21459 8.00003 4.71287V5.07187L7.67525 4.88436C6.38538 4.13965 4.73603 4.5816 3.99133 5.87146L2.72539 8.06413C1.96011 9.38963 2.41426 11.0845 3.73976 11.8498L3.99999 12.0001L3.73975 12.1503C2.41426 12.9156 1.96011 14.6105 2.72538 15.936L3.99129 18.1286C4.73601 19.4185 6.3854 19.8604 7.67531 19.1157L8.00003 18.9282V19.2871C8.00003 20.7854 9.21462 22 10.7129 22H13.431C14.8499 22 16 20.8498 16 19.431V19.0458L16.0006 19.0448C16.007 19.0348 16.0223 19.0177 16.048 19.0034C16.072 18.9901 16.0917 18.987 16.1009 18.9868L16.4267 19.1746C17.6603 19.8868 19.2376 19.4642 19.9498 18.2306L21.4052 15.7097C22.0984 14.5092 21.687 12.9741 20.4865 12.281L20.2223 12.1284C20.2208 12.1276 20.2122 12.1226 20.2014 12.1024C20.1895 12.0801 20.1785 12.0446 20.1785 12C20.1785 11.9555 20.1895 11.92 20.2014 11.8977C20.2122 11.8773 20.2209 11.8725 20.2222 11.8718L20.4865 11.7192C21.687 11.026 22.0984 9.49095 21.4052 8.29044L19.9497 5.76941C19.2376 4.5359 17.6603 4.11327 16.4268 4.82544L16.1014 5.01329C16.0921 5.01309 16.0721 5.00991 16.048 4.99661C16.0223 4.98236 16.0071 4.96525 16.0006 4.95516L16 4.95417V4.56898C16 3.15017 14.8499 2 13.431 2H10.7129ZM8.00004 12C8.00004 9.79086 9.79091 8 12 8C14.2092 8 16 9.79086 16 12C16 14.2091 14.2092 16 12 16C9.79091 16 8.00004 14.2091 8.00004 12Z" fill="#090E1D"/>
</svg>
