<svg width="24" height="24" viewBox="0 0 24 24" fill="none" xmlns="http://www.w3.org/2000/svg">
<path d="M20.7678 2.35357C19.7915 1.37726 18.2085 1.37726 17.2322 2.35357L15.5 4.0858L19.9142 8.50002L21.6464 6.76778C22.6228 5.79147 22.6228 4.20856 21.6464 3.23225L20.7678 2.35357Z" fill="#090E1D"/>
<path d="M9.73223 9.85357L14.0858 5.50002L18.5 9.91423L14.1464 14.2678C13.6776 14.7366 13.0417 15 12.3787 15H9V11.6213C9 10.9583 9.26339 10.3224 9.73223 9.85357Z" fill="#090E1D"/>
<path d="M5 7C5 5.89543 5.89543 5 7 5H12.5333V3H7C4.79086 3 3 4.79086 3 7V17C3 19.2091 4.79086 21 7 21H17C19.2091 21 21 19.2091 21 17V11.4667H19V17C19 18.1046 18.1046 19 17 19H7C5.89543 19 5 18.1046 5 17V7Z" fill="#090E1D"/>
</svg>
