<svg width="24" height="24" viewBox="0 0 24 24" fill="none" xmlns="http://www.w3.org/2000/svg">
<path fill-rule="evenodd" clip-rule="evenodd" d="M4.99995 11.4142L3.70706 12.7071L2.29285 11.2929L9.87863 3.70711C11.0502 2.53553 12.9497 2.53554 14.1213 3.70711L21.7071 11.2929L20.2928 12.7071L19 11.4142V17C19 19.2092 17.2091 21 15 21H8.99995C6.79081 21 4.99995 19.2092 4.99995 17V11.4142ZM11.5 15C11.2238 15 11 15.2239 11 15.5L11 21L8.99995 21V15.5C8.99995 14.1193 10.1192 13 11.5 13H12.5C13.8807 13 15 14.1193 15 15.5V21L13 21V15.5C13 15.2239 12.7761 15 12.5 15H11.5Z" fill="#090E1D"/>
</svg>
