<svg width="24" height="24" viewBox="0 0 24 24" fill="none" xmlns="http://www.w3.org/2000/svg">
<path fill-rule="evenodd" clip-rule="evenodd" d="M6 7C3.79086 7 2 8.79086 2 11V13C2 15.2091 3.79086 17 6 17H8C10.2091 17 12 15.2091 12 13H13.5C13.7761 13 14 13.2239 14 13.5V16H16V13.5C16 13.3288 15.9828 13.1616 15.95 13H16.5C16.7761 13 17 13.2239 17 13.5V16H19V13.5C19 13.3288 18.9828 13.1616 18.95 13H19.5C19.7761 13 20 13.2239 20 13.5V16H22V13.5C22 12.1193 20.8807 11 19.5 11H12C12 8.79086 10.2091 7 8 7H6ZM6 11.5C6 11.2239 6.22386 11 6.5 11H7.5C7.77614 11 8 11.2239 8 11.5V12.5C8 12.7761 7.77614 13 7.5 13H6.5C6.22386 13 6 12.7761 6 12.5V11.5Z" fill="#090E1D"/>
</svg>
