<svg width="24" height="24" viewBox="0 0 24 24" fill="none" xmlns="http://www.w3.org/2000/svg">
<path fill-rule="evenodd" clip-rule="evenodd" d="M13 3.07946V2H11V3.07945C8.61454 3.46174 6.6195 5.19154 5.93955 7.57138L4.02988 14.2552C3.35051 16.633 5.13592 19 7.60888 19H8.17292C8.18808 19.1741 8.23049 19.3522 8.30444 19.5307C8.50546 20.016 8.8001 20.457 9.17153 20.8284C9.54296 21.1999 9.98392 21.4945 10.4692 21.6955C10.9545 21.8965 11.4747 22 12 22C12.5252 22 13.0454 21.8965 13.5307 21.6955C14.016 21.4945 14.457 21.1999 14.8284 20.8284C15.1998 20.457 15.4945 20.016 15.6955 19.5307C15.7694 19.3522 15.8118 19.1741 15.827 19H16.391C18.864 19 20.6494 16.633 19.97 14.2552L18.0604 7.57137C17.3804 5.19156 15.3854 3.46178 13 3.07946ZM13.732 19H10.2679C10.3551 19.151 10.4619 19.2904 10.5857 19.4142C10.7715 19.5999 10.9919 19.7472 11.2346 19.8478C11.4772 19.9483 11.7373 20 12 20C12.2626 20 12.5227 19.9483 12.7653 19.8478C13.008 19.7472 13.2285 19.5999 13.4142 19.4142C13.538 19.2904 13.6448 19.151 13.732 19Z" fill="#090E1D"/>
</svg>
