<svg width="24" height="24" viewBox="0 0 24 24" fill="none" xmlns="http://www.w3.org/2000/svg">
<path d="M14 3.5C14 3.22386 13.7761 3 13.5 3H10.5C10.2239 3 10 3.22386 10 3.5L10 6.5C10 6.77614 10.2239 7 10.5 7H13.5C13.7761 7 14 6.77614 14 6.5V3.5Z" fill="#090E1D"/>
<path d="M13.5 10C13.7761 10 14 10.2239 14 10.5V13.5C14 13.7761 13.7761 14 13.5 14H10.5C10.2239 14 10 13.7761 10 13.5L10 10.5C10 10.2239 10.2239 10 10.5 10H13.5Z" fill="#090E1D"/>
<path d="M13.5 17C13.7761 17 14 17.2239 14 17.5V20.5C14 20.7761 13.7761 21 13.5 21H10.5C10.2239 21 10 20.7761 10 20.5L10 17.5C10 17.2239 10.2239 17 10.5 17H13.5Z" fill="#090E1D"/>
</svg>
