<svg width="24" height="24" viewBox="0 0 24 24" fill="none" xmlns="http://www.w3.org/2000/svg">
<path d="M15 4.5C15 3.11929 16.1193 2 17.5 2H18.5C19.8807 2 21 3.11929 21 4.5V5.5C21 6.70948 20.1411 7.71836 19 7.94999V9C19 10.1947 18.4762 11.2671 17.6458 12C18.4762 12.7329 19 13.8053 19 15V16.05C20.1411 16.2816 21 17.2905 21 18.5V19.5C21 20.8807 19.8807 22 18.5 22H17.5C16.1193 22 15 20.8807 15 19.5V18.5C15 17.2905 15.8589 16.2816 17 16.05V15C17 13.8954 16.1046 13 15 13H8.94999C8.71836 14.1411 7.70948 15 6.5 15H5.5C4.11929 15 3 13.8807 3 12.5V11.5C3 10.1193 4.11929 9 5.5 9H6.5C7.70948 9 8.71836 9.85888 8.94999 11H15C16.1046 11 17 10.1046 17 9V7.94999C15.8589 7.71836 15 6.70948 15 5.5V4.5Z" fill="#090E1D"/>
</svg>
