<svg width="24" height="24" viewBox="0 0 24 24" fill="none" xmlns="http://www.w3.org/2000/svg">
<path d="M14.3863 3.0979C13.5095 1.01108 10.5323 1.0707 9.73972 3.19094L8.7921 5.72605C8.49993 6.50769 7.75317 7.02579 6.9187 7.02579H4.06823C1.74459 7.02579 0.677839 9.91893 2.4453 11.4274L4.81299 13.4481C5.4327 13.977 5.66965 14.8289 5.41201 15.6018L4.37036 18.7268C3.62925 20.9501 6.07971 22.8795 8.06707 21.6374L10.9401 19.8417C11.5886 19.4364 12.4115 19.4364 13.0601 19.8417L15.933 21.6374C17.9204 22.8795 20.3709 20.9501 19.6297 18.7268L18.5881 15.6018C18.3305 14.8289 18.5674 13.977 19.1871 13.4481L21.5548 11.4274C23.3223 9.91893 22.2555 7.02579 19.9319 7.02579H17.3656C16.5604 7.02579 15.8337 6.54286 15.5218 5.80048L14.3863 3.0979Z" fill="#090E1D"/>
</svg>
