<svg width="24" height="24" viewBox="0 0 24 24" fill="none" xmlns="http://www.w3.org/2000/svg">
<path d="M3 7H12.05C12.2816 8.14112 13.2905 9 14.5 9H15.5C16.7095 9 17.7184 8.14112 17.95 7H21V5H17.95C17.7184 3.85888 16.7095 3 15.5 3H14.5C13.2905 3 12.2816 3.85888 12.05 5H3V7Z" fill="#090E1D"/>
<path d="M21 13V11L11.95 11C11.7184 9.85888 10.7095 9 9.5 9H8.5C7.29052 9 6.28164 9.85888 6.05001 11H3V13H6.05001C6.28164 14.1411 7.29052 15 8.5 15H9.5C10.7095 15 11.7184 14.1411 11.95 13L21 13Z" fill="#090E1D"/>
<path d="M3 19V17H12.05C12.2816 15.8589 13.2905 15 14.5 15H15.5C16.7095 15 17.7184 15.8589 17.95 17H21V19H17.95C17.7184 20.1411 16.7095 21 15.5 21H14.5C13.2905 21 12.2816 20.1411 12.05 19H3Z" fill="#090E1D"/>
</svg>
