<svg width="24" height="24" viewBox="0 0 24 24" fill="none" xmlns="http://www.w3.org/2000/svg">
<path d="M7.76772 9.64646L11.7071 5.70712L10.2928 4.29291L6.35351 8.23225C6.15825 8.42751 5.84166 8.42751 5.6464 8.23225L3.70706 6.29291L2.29285 7.70712L4.23219 9.64646C5.2085 10.6228 6.79141 10.6228 7.76772 9.64646Z" fill="#090E1D"/>
<path d="M7.76772 17.6465L11.7071 13.7071L10.2928 12.2929L6.35351 16.2322C6.15825 16.4275 5.84166 16.4275 5.6464 16.2322L3.70706 14.2929L2.29285 15.7071L4.23219 17.6465C5.2085 18.6228 6.79141 18.6228 7.76772 17.6465Z" fill="#090E1D"/>
<path d="M22 17H13V15H22V17Z" fill="#090E1D"/>
<path d="M13 9.00001H22V7.00001H13V9.00001Z" fill="#090E1D"/>
</svg>
