<svg width="24" height="24" viewBox="0 0 24 24" fill="none" xmlns="http://www.w3.org/2000/svg">
<path d="M12 4V21H10V19C10 17.8954 9.10457 17 8 17H5.5C4.11929 17 3 15.8807 3 14.5V10.5C3 9.11929 4.11929 8 5.5 8H8C9.10457 8 10 7.10457 10 6V4H12Z" fill="#090E1D"/>
<path d="M16 4H17C19.2091 4 21 5.79086 21 8V16C21 18.2091 19.2091 20 17 20H16V18H17C18.1046 18 19 17.1046 19 16V8C19 6.89543 18.1046 6 17 6H16V4Z" fill="#090E1D"/>
<path d="M14 8H14.5C15.8807 8 17 9.11929 17 10.5V13.5C17 14.8807 15.8807 16 14.5 16H14V14H14.5C14.7761 14 15 13.7761 15 13.5V10.5C15 10.2239 14.7761 10 14.5 10H14V8Z" fill="#090E1D"/>
</svg>
