<svg width="24" height="24" viewBox="0 0 24 24" fill="none" xmlns="http://www.w3.org/2000/svg">
<path fill-rule="evenodd" clip-rule="evenodd" d="M19 14V13.5C19 13.2239 19.2239 13 19.5 13H20.5C20.7761 13 21 13.2239 21 13.5V14V16C21 18.7614 18.7614 21 16 21H8C5.23858 21 3 18.7614 3 16V8C3 5.23858 5.23858 3 8 3H16C18.7614 3 21 5.23858 21 8V10V10.5C21 10.7761 20.7761 11 20.5 11H19.5C19.2239 11 19 10.7761 19 10.5V10C19 8.89543 18.1046 8 17 8H13C11.8954 8 11 8.89543 11 10V14C11 15.1046 11.8954 16 13 16H17C18.1046 16 19 15.1046 19 14Z" fill="#090E1D"/>
</svg>
