<svg width="24" height="24" viewBox="0 0 24 24" fill="none" xmlns="http://www.w3.org/2000/svg">
<path d="M9 9.5C9 9.22386 9.22386 9 9.5 9H14.5C14.7761 9 15 9.22386 15 9.5V14.5C15 14.7761 14.7761 15 14.5 15H9.5C9.22386 15 9 14.7761 9 14.5V9.5Z" fill="#090E1D"/>
<path fill-rule="evenodd" clip-rule="evenodd" d="M4 8C4 5.79086 5.79086 4 8 4H16C18.2091 4 20 5.79086 20 8V16C20 18.2091 18.2091 20 16 20H8C5.79086 20 4 18.2091 4 16V8ZM9.5 7C8.11929 7 7 8.11929 7 9.5V14.5C7 15.8807 8.11929 17 9.5 17H14.5C15.8807 17 17 15.8807 17 14.5V9.5C17 8.11929 15.8807 7 14.5 7H9.5Z" fill="#090E1D"/>
</svg>
