<svg width="24" height="24" viewBox="0 0 24 24" fill="none" xmlns="http://www.w3.org/2000/svg">
<path fill-rule="evenodd" clip-rule="evenodd" d="M15.4617 4.98343C13.9211 2.32229 10.079 2.3223 8.53833 4.98344L2.74167 14.9959C1.19781 17.6625 3.12205 21 6.20337 21H17.7967C20.878 21 22.8023 17.6625 21.2584 14.9958L15.4617 4.98343ZM11 15.5C11 15.2239 11.2239 15 11.5 15H12.5C12.7761 15 13 15.2239 13 15.5V16.5C13 16.7761 12.7761 17 12.5 17H11.5C11.2239 17 11 16.7761 11 16.5V15.5ZM11 7.99999V14H13V7.99999H11Z" fill="#090E1D"/>
</svg>
