<svg width="24" height="24" viewBox="0 0 24 24" fill="none" xmlns="http://www.w3.org/2000/svg">
<path d="M16 6L12 10L8 6L9.87868 4.12132C11.0503 2.94975 12.9497 2.94975 14.1213 4.12132L16 6Z" stroke="#090E1D" stroke-width="2"/>
<path d="M16 18L12 14L8 18L9.87868 19.8787C11.0503 21.0503 12.9497 21.0503 14.1213 19.8787L16 18Z" stroke="#090E1D" stroke-width="2"/>
<path d="M18 16L14 12L18 8L19.8787 9.87868C21.0503 11.0503 21.0503 12.9497 19.8787 14.1213L18 16Z" stroke="#090E1D" stroke-width="2"/>
<path d="M6 16L10 12L6 8L4.12132 9.87868C2.94975 11.0503 2.94975 12.9497 4.12132 14.1213L6 16Z" stroke="#090E1D" stroke-width="2"/>
</svg>
