<svg width="24" height="25" viewBox="0 0 24 25" fill="none" xmlns="http://www.w3.org/2000/svg">
<path d="M12 11.4584L12 17.7084" stroke="#090E1D" stroke-width="2"/>
<path d="M15 14.5834H9" stroke="#090E1D" stroke-width="2"/>
<path d="M18.4672 17.3738C18.8189 16.4891 19 15.5409 19 14.5834C19 13.2253 18.5955 11.8981 17.838 10.7709L14.49 5.78874C13.3013 4.01978 10.6987 4.01978 9.50999 5.78874L6.162 10.7709C5.40453 11.8981 5 13.2253 5 14.5834C5 15.5409 5.18106 16.4891 5.53284 17.3738C5.88463 18.2584 6.40024 19.0623 7.05025 19.7394C7.70026 20.4165 8.47194 20.9536 9.32122 21.32C10.1705 21.6864 11.0807 21.875 12 21.875C12.9193 21.875 13.8295 21.6864 14.6788 21.32C15.5281 20.9536 16.2997 20.4165 16.9497 19.7394C17.5998 19.0623 18.1154 18.2584 18.4672 17.3738Z" stroke="#090E1D" stroke-width="2"/>
</svg>
