<svg width="24" height="25" viewBox="0 0 24 25" fill="none" xmlns="http://www.w3.org/2000/svg">
<path d="M16 22.9167V18.9519C16 18.8278 16.069 18.714 16.1791 18.6567V18.6567C18.5272 17.4337 20 15.0061 20 12.3586V10.125C20 6.25901 16.866 3.125 13 3.125L12.1726 3.125C8.76358 3.125 6 5.88858 6 9.29763V9.29763C6 9.34832 5.98668 9.39812 5.96138 9.44205L3.94889 12.936C3.52691 13.6686 4.05568 14.5833 4.90111 14.5833V14.5833C5.50801 14.5833 6 15.0753 6 15.6822V17.25C6 18.0784 6.67157 18.75 7.5 18.75H8.5C9.32843 18.75 10 19.4216 10 20.25V22.9167" stroke="#090E1D" stroke-width="2"/>
<path d="M13 7.29163V13.5416" stroke="#090E1D" stroke-width="2"/>
<path d="M16 10.4166L10 10.4166" stroke="#090E1D" stroke-width="2"/>
</svg>
