<svg width="24" height="24" viewBox="0 0 24 24" fill="none" xmlns="http://www.w3.org/2000/svg">
<path d="M9.75577 4.50385L10.3359 4.8906C11.3436 5.5624 12.6564 5.5624 13.6641 4.8906L14.2442 4.50385C14.737 4.17531 15.3161 4 15.9083 4H17C18.6569 4 20 5.34315 20 7V9.75736C20 10.553 19.6839 11.3161 19.1213 11.8787L18.8787 12.1213C18.3161 12.6839 18 13.447 18 14.2426V19.2566C18 20.2194 17.2194 21 16.2566 21C15.5062 21 14.8399 20.5198 14.6026 19.8079L13.3162 15.9487C13.1274 15.3821 12.5972 15 12 15C11.4028 15 10.8726 15.3821 10.6838 15.9487L9.39737 19.8079C9.16006 20.5198 8.49384 21 7.74342 21C6.78055 21 6 20.2194 6 19.2566V14.2426C6 13.447 5.68393 12.6839 5.12132 12.1213L4.87868 11.8787C4.31607 11.3161 4 10.553 4 9.75736V7C4 5.34315 5.34315 4 7 4H8.09167C8.68395 4 9.26297 4.17531 9.75577 4.50385Z" stroke="#090E1D" stroke-width="2"/>
<rect x="7" y="7" width="2" height="2" rx="0.5" fill="#090E1D"/>
<rect x="11" y="8" width="2" height="2" rx="0.5" fill="#090E1D"/>
<rect x="15" y="7" width="2" height="2" rx="0.5" fill="#090E1D"/>
</svg>
