<svg width="24" height="24" viewBox="0 0 24 24" fill="none" xmlns="http://www.w3.org/2000/svg">
<path d="M14 13H16.5C17.4443 13 18.3334 12.5554 18.9 11.8L20.4 9.8C20.7895 9.28071 21 8.64911 21 8V7C21 5.34315 19.6569 4 18 4H6C4.34315 4 3 5.34315 3 7V15.0458C3 16.1251 3.87491 17 4.95416 17V17C5.60754 17 6.2177 16.6735 6.58013 16.1298L7.1094 15.3359C7.6658 14.5013 8.60249 14 9.60555 14H12C13.6569 14 15 12.6569 15 11V9" stroke="#090E1D" stroke-width="2"/>
<path d="M6 10H7C8.65685 10 10 11.3431 10 13V21" stroke="#090E1D" stroke-width="2"/>
<path d="M10 20V10C10 8.34315 11.3431 7 13 7H14" stroke="#090E1D" stroke-width="2"/>
</svg>
