<svg width="24" height="24" viewBox="0 0 24 24" fill="none" xmlns="http://www.w3.org/2000/svg">
<path d="M16 6H13C11.3431 6 10 4.65685 10 3V2" stroke="#090E1D" stroke-width="2"/>
<path d="M4 21L4 20C4 18.3431 5.34315 17 7 17L10 17" stroke="#090E1D" stroke-width="2"/>
<path d="M18 6H16.338C14.7458 6 13.4309 7.24384 13.3426 8.83359L13.1079 13.0585C13.0473 14.1478 12.1464 15 11.0555 15C9.92028 15 9 15.9203 9 17.0555V17.5C9 18.8807 10.1193 20 11.5 20H14.4291C15.1216 20 15.7928 19.7604 16.3288 19.3219L19.8997 16.4002C20.5961 15.8304 21 14.9782 21 14.0784V9C21 7.34315 19.6569 6 18 6Z" stroke="#090E1D" stroke-width="2"/>
</svg>
