<svg width="24" height="24" viewBox="0 0 24 24" fill="none" xmlns="http://www.w3.org/2000/svg">
<path d="M13.3334 13.3334L11 15.6667C10.4477 16.219 10.4477 17.1144 11 17.6667V17.6667C11.5523 18.219 11.5523 19.1144 11 19.6667L9.72735 20.9394C9.14156 21.5252 8.19182 21.5252 7.60603 20.9394L7.10602 20.4394C6.82472 20.1581 6.66668 19.7766 6.66668 19.3787V18.8334C6.66668 18.005 5.99511 17.3334 5.16668 17.3334L4.62133 17.3334C4.2235 17.3334 3.84197 17.1753 3.56067 16.894L3.06066 16.394C2.47487 15.8082 2.47487 14.8585 3.06066 14.2727L4.33334 13C4.88563 12.4477 5.78106 12.4477 6.33335 13V13C6.88563 13.5523 7.78107 13.5523 8.33335 13L10.6667 10.6667" stroke="#090E1D" stroke-width="2"/>
<path d="M10.6666 10.6666L13 8.33329C13.5523 7.78101 13.5523 6.88557 13 6.33329V6.33329C12.4477 5.781 12.4477 4.88557 13 4.33328L14.2727 3.0606C14.8584 2.47481 15.8082 2.47481 16.394 3.0606L16.894 3.5606C17.1753 3.84191 17.3333 4.22344 17.3333 4.62126V5.16662C17.3333 5.99505 18.0049 6.66662 18.8333 6.66662L19.3787 6.66662C19.7765 6.66662 20.158 6.82465 20.4393 7.10596L20.9393 7.60597C21.5251 8.19175 21.5251 9.1415 20.9393 9.72729L19.6667 11C19.1144 11.5523 18.2189 11.5523 17.6667 11V11C17.1144 10.4477 16.2189 10.4477 15.6666 11L13.3333 13.3333" stroke="#090E1D" stroke-width="2"/>
</svg>
