<svg width="24" height="24" viewBox="0 0 24 24" fill="none" xmlns="http://www.w3.org/2000/svg">
<path d="M5 6C5 7.10457 5.89543 8 7 8H17C18.1046 8 19 7.10457 19 6V6C19 4.89543 18.1046 4 17 4H7C5.89543 4 5 4.89543 5 6V6Z" stroke="#090E1D" stroke-width="2"/>
<path d="M7 8H17V18C17 19.6569 15.6569 21 14 21H10C8.34315 21 7 19.6569 7 18V8Z" stroke="#090E1D" stroke-width="2"/>
<path d="M8 4L8 8" stroke="#090E1D" stroke-width="2"/>
<path d="M16 4L16 8" stroke="#090E1D" stroke-width="2"/>
<path d="M12 4L12 8" stroke="#090E1D" stroke-width="2"/>
<path d="M12 11L12 17" stroke="#090E1D" stroke-width="2"/>
<path d="M15 14H9" stroke="#090E1D" stroke-width="2"/>
</svg>
