<svg width="24" height="24" viewBox="0 0 24 24" fill="none" xmlns="http://www.w3.org/2000/svg">
<path d="M8 15V16C8 17.6569 9.34315 19 11 19H15C16.6569 19 18 17.6569 18 16V10C18 8.34315 16.6569 7 15 7H12" stroke="#090E1D" stroke-width="2"/>
<path d="M6 22V22C6 20.3431 7.34315 19 9 19H17C18.6569 19 20 20.3431 20 22V22" stroke="#090E1D" stroke-width="2"/>
<path d="M5 15H11" stroke="#090E1D" stroke-width="2"/>
<path d="M8.42354 5.05045C8.63795 4.25025 9.46046 3.77538 10.2607 3.98979L11.2266 4.24861C12.0268 4.46302 12.5017 5.28553 12.2872 6.08573L11.252 9.94943C11.0376 10.7496 10.215 11.2245 9.41485 11.0101L8.44892 10.7513C7.64872 10.5369 7.17385 9.71435 7.38826 8.91415L8.42354 5.05045Z" stroke="#090E1D" stroke-width="2"/>
<path d="M8.93188 10.8807L8.41425 12.8126" stroke="#090E1D" stroke-width="2"/>
<path d="M11.2612 2.18738L10.7436 4.11923" stroke="#090E1D" stroke-width="2"/>
</svg>
