<svg width="24" height="24" viewBox="0 0 24 24" fill="none" xmlns="http://www.w3.org/2000/svg">
<path d="M9.8 8.90003L7.11863 22.4026C7.05723 22.7118 7.29381 23 7.60905 23H8.7C8.93385 23 9.13647 22.8379 9.18781 22.6098L10.9 15L12.069 16.1133C12.6635 16.6796 13 17.4647 13 18.2857V22.5C13 22.7762 13.2239 23 13.5 23H14.5C14.7761 23 15 22.7762 15 22.5V17.2653C15 16.138 14.538 15.06 13.7217 14.2826C13.2102 13.7954 12.984 13.08 13.1225 12.3873L13.5 10.5C14.7008 11.8856 16.4989 12.8446 18.5003 12.9828C18.7757 13.0018 19 12.7762 19 12.5V11.5C19 11.2239 18.7755 11.0026 18.5006 10.9767C16.8218 10.819 15.4289 9.87553 14.7 8.60003L13.7 7.00003C13.14 6.11003 12.02 5.75003 11.05 6.16003L9.04912 7.00792C7.2007 7.79121 6 9.60409 6 11.6116V12.5C6 12.7762 6.22386 13 6.5 13H7.5C7.77614 13 8 12.7762 8 12.5V11.5313C8 10.367 8.71481 9.32205 9.8 8.90003Z" fill="#090E1D"/>
<rect x="11" y="1" width="4" height="4" rx="1.5" fill="#090E1D"/>
</svg>
