<svg width="24" height="24" viewBox="0 0 24 24" fill="none" xmlns="http://www.w3.org/2000/svg">
<path d="M10.8 10.5L13.2 8.1L14 8.9C15.1952 10.0952 16.7285 10.8678 18.6 10.9846C18.8756 11.0018 19.1 10.7761 19.1 10.5V9.5C19.1 9.22386 18.8754 9.00265 18.6005 8.97722C17.3312 8.85984 16.2977 8.29778 15.5 7.5L13.6 5.6C13.1 5.2 12.6 5 12 5C11.4859 5 11.0453 5.14679 10.7409 5.44036C10.6388 5.53891 10.5496 5.65038 10.4492 5.75076L7.79995 8.4C7.39995 8.8 7.19995 9.3 7.19995 9.8C7.19995 10.4 7.39995 10.9 7.79995 11.2L9.97547 13.1036C10.6265 13.6732 11 14.4962 11 15.3613V18.5C11 18.7761 11.2238 19 11.5 19H12.5C12.7761 19 13 18.7761 13 18.5V15.2075C13 13.6624 12.4038 12.1768 11.3358 11.0602L10.8 10.5Z" fill="#090E1D"/>
<rect x="15" y="13" width="7" height="7" rx="2" stroke="#090E1D" stroke-width="2"/>
<rect x="2" y="13" width="7" height="7" rx="2" stroke="#090E1D" stroke-width="2"/>
<rect x="13" y="1" width="4" height="4" rx="1.5" fill="#090E1D"/>
</svg>
