<svg width="24" height="24" viewBox="0 0 24 24" fill="none" xmlns="http://www.w3.org/2000/svg">
<path d="M19.0003 11.9811C19.2757 12.002 19.5 11.7761 19.5 11.5V10.5C19.5 10.2239 19.2754 10.003 19.001 9.97165C17.4087 9.78998 16.0346 8.75044 15.4 7.3L14.8 6.1C14.7 5.6 14.1 5 13.2 5H10.8255C8.75675 5 6.83393 6.06572 5.7375 7.82001L5.26087 8.58261C5.11614 8.81418 5.18397 9.11904 5.41324 9.26739L6.26982 9.82165C6.50568 9.97427 6.82095 9.90267 6.96775 9.66315L7.72213 8.43231C8.26753 7.54245 9.23623 7 10.2799 7H11L8.5 10.8C8.2 11.3 8.1 11.9 8.3 12.5L9.1036 15.0344C9.41288 16.0098 9.20365 17.0756 8.54857 17.8617L6.6 20.2H9.2L9.80791 19.5052C11.1714 17.947 11.6351 15.7958 11.0346 13.8142L11 13.7L13.0965 15.0178C13.9699 15.5668 14.5 16.5261 14.5 17.5577V20.3H16.5V17.8173C16.5 15.753 15.4388 13.8337 13.6906 12.736L12.2 11.8L14 8.9C15.0198 10.6615 16.8991 11.8213 19.0003 11.9811Z" fill="#090E1D"/>
<rect x="14" y="1" width="4" height="4" rx="1.5" fill="#090E1D"/>
<path d="M4 18V18C4 19.6569 5.34315 21 7 21H17C18.6569 21 20 19.6569 20 18V18" stroke="#090E1D" stroke-width="2"/>
</svg>
