<svg width="24" height="24" viewBox="0 0 24 24" fill="none" xmlns="http://www.w3.org/2000/svg">
<path fill-rule="evenodd" clip-rule="evenodd" d="M2 6C2 3.79086 3.79086 2 6 2H18C20.2091 2 22 3.79086 22 6V18C22 20.2091 20.2091 22 18 22H6C3.79086 22 2 20.2091 2 18V6ZM7.22119 11.1313C8.32576 11.1313 9.22119 10.2359 9.22119 9.13129H11.2212C11.2212 9.85995 11.0264 10.5431 10.6859 11.1315H17.2212V13.1315H10.6862C11.0264 13.7198 11.2212 14.4028 11.2212 15.1313H9.22119C9.22119 14.0267 8.32576 13.1313 7.22119 13.1313V11.1313Z" fill="#090E1D"/>
</svg>
