<svg width="24" height="24" viewBox="0 0 24 24" fill="none" xmlns="http://www.w3.org/2000/svg">
<path fill-rule="evenodd" clip-rule="evenodd" d="M15.4879 4.80039C13.8825 4.0226 12.0631 3.80375 10.319 4.17861C8.57485 4.55347 7.00606 5.50053 5.86194 6.86929C4.71782 8.23804 4.06403 9.94993 4.00446 11.7329C3.9449 13.5158 4.48299 15.2676 5.5332 16.7096C6.58342 18.1517 8.0855 19.2013 9.80072 19.6918C11.5159 20.1822 13.3459 20.0852 14.9997 19.4163C16.6535 18.7474 18.0362 17.5449 18.9282 16L20.6603 17C19.5453 18.9312 17.8168 20.4343 15.7496 21.2704C13.6823 22.1066 11.3949 22.2277 9.2509 21.6147C7.10688 21.0017 5.22927 19.6896 3.9165 17.887C2.60373 16.0844 1.93112 13.8948 2.00558 11.6661C2.08003 9.43741 2.89728 7.29755 4.32742 5.58661C5.75757 3.87567 7.71856 2.69184 9.89871 2.22326C12.0789 1.75468 14.3531 2.02825 16.3599 3.00049C17.8031 3.69966 19.0485 4.73132 20 5.99997V2.99999H22V6C22 8.20913 20.2091 10 18 10H15V7.99999H18C18.2934 7.99999 18.5721 7.9368 18.8231 7.82329C18.0264 6.52163 16.8707 5.47026 15.4879 4.80039Z" fill="#090E1D"/>
</svg>
