<svg width="24" height="24" viewBox="0 0 24 24" fill="none" xmlns="http://www.w3.org/2000/svg">
<path fill-rule="evenodd" clip-rule="evenodd" d="M7.64008 3.00049C9.64692 2.02825 11.9211 1.75468 14.1013 2.22326C16.2814 2.69184 18.2424 3.87567 19.6726 5.58661C21.1027 7.29755 21.92 9.43741 21.9944 11.6661C22.0689 13.8948 21.3963 16.0844 20.0835 17.887C18.7707 19.6896 16.8931 21.0017 14.7491 21.6147C12.6051 22.2277 10.3177 22.1066 8.25043 21.2704C6.18318 20.4343 4.45472 18.9312 3.33975 17L5.0718 16C5.96377 17.5449 7.34655 18.7474 9.00034 19.4163C10.6541 20.0852 12.4841 20.1822 14.1993 19.6918C15.9145 19.2013 17.4166 18.1517 18.4668 16.7096C19.517 15.2676 20.0551 13.5158 19.9955 11.7329C19.936 9.94993 19.2822 8.23804 18.1381 6.86929C16.9939 5.50053 15.4252 4.55347 13.681 4.17861C11.9369 3.80375 10.1175 4.0226 8.51207 4.80039C7.12935 5.47026 5.97363 6.52163 5.17686 7.82329C5.4279 7.9368 5.70657 7.99999 6 7.99999H9V10H6C3.79086 10 2 8.20913 2 6V2.99999H4V5.99997C4.95151 4.73132 6.19688 3.69966 7.64008 3.00049Z" fill="#090E1D"/>
</svg>
