<svg width="24" height="24" viewBox="0 0 24 24" fill="none" xmlns="http://www.w3.org/2000/svg">
<path fill-rule="evenodd" clip-rule="evenodd" d="M11 10C9.06488 10 7.24796 10.5788 5.94315 11.5574C4.64384 12.5318 4 13.782 4 15H2C2 13.0354 3.04187 11.2333 4.74315 9.95736C6.43892 8.68553 8.69166 8 11 8C13.3083 8 15.5611 8.68553 17.2569 9.95736C18.3916 10.8084 19.2329 11.8935 19.6675 13.1047C19.8776 12.7882 20 12.4084 20 12V9H22V12C22 14.2091 20.2091 16 18 16H15V14H17.8554C17.5989 13.119 17.0009 12.2654 16.0569 11.5574C14.752 10.5788 12.9351 10 11 10Z" fill="#090E1D"/>
</svg>
