<svg width="24" height="24" viewBox="0 0 24 24" fill="none" xmlns="http://www.w3.org/2000/svg">
<path fill-rule="evenodd" clip-rule="evenodd" d="M6.74315 9.95736C8.43892 8.68553 10.6917 8 13 8C15.3083 8 17.5611 8.68553 19.2569 9.95736C20.9581 11.2333 22 13.0354 22 15H20C20 13.782 19.3562 12.5318 18.0569 11.5574C16.752 10.5788 14.9351 10 13 10C11.0649 10 9.24796 10.5788 7.94315 11.5574C6.9991 12.2654 6.40108 13.119 6.14463 14H9V16H6C3.79086 16 2 14.2091 2 12V9H4V12C4 12.4084 4.1224 12.7882 4.33253 13.1047C4.76708 11.8935 5.60844 10.8084 6.74315 9.95736Z" fill="#090E1D"/>
</svg>
