<svg width="24" height="24" viewBox="0 0 24 24" fill="none" xmlns="http://www.w3.org/2000/svg">
<path d="M8 8.5C8 8.22386 8.22386 8 8.5 8H15.5C15.7761 8 16 8.22386 16 8.5V15.5C16 15.7761 15.7761 16 15.5 16H8.5C8.22386 16 8 15.7761 8 15.5V8.5Z" fill="#090E1D"/>
<path fill-rule="evenodd" clip-rule="evenodd" d="M2 6C2 3.79086 3.79086 2 6 2H18C20.2091 2 22 3.79086 22 6V18C22 20.2091 20.2091 22 18 22H6C3.79086 22 2 20.2091 2 18V6ZM8.5 6C7.11929 6 6 7.11929 6 8.5V15.5C6 16.8807 7.11929 18 8.5 18H15.5C16.8807 18 18 16.8807 18 15.5V8.5C18 7.11929 16.8807 6 15.5 6H8.5Z" fill="#090E1D"/>
</svg>
