<svg width="24" height="24" viewBox="0 0 24 24" fill="none" xmlns="http://www.w3.org/2000/svg">
<path d="M16.9497 18.364L12 13.4142L7.05021 18.364L9.87864 21.1924C11.0502 22.364 12.9497 22.364 14.1213 21.1924L16.9497 18.364Z" fill="#090E1D"/>
<path d="M18.3639 16.9497L21.1924 14.1213C22.3639 12.9497 22.3639 11.0503 21.1924 9.87868L18.3639 7.05025L13.4142 12L18.3639 16.9497Z" fill="#090E1D"/>
<path d="M16.9497 5.63604L14.1213 2.80761C12.9497 1.63604 11.0502 1.63604 9.87864 2.80761L7.05021 5.63604L12 10.5858L16.9497 5.63604Z" fill="#090E1D"/>
<path d="M5.636 7.05025L2.80757 9.87868C1.636 11.0503 1.636 12.9497 2.80757 14.1213L5.636 16.9497L10.5857 12L5.636 7.05025Z" fill="#090E1D"/>
</svg>
