<svg width="24" height="24" viewBox="0 0 24 24" fill="none" xmlns="http://www.w3.org/2000/svg">
<path fill-rule="evenodd" clip-rule="evenodd" d="M3 17V4H5V17C5 18.1046 5.89543 19 7 19H20V21H7C4.79086 21 3 19.2091 3 17Z" fill="#090E1D"/>
<path d="M8 5.5C8 5.22386 8.22386 5 8.5 5H9.5C9.77614 5 10 5.22386 10 5.5V6.5C10 6.77614 9.77614 7 9.5 7H8.5C8.22386 7 8 6.77614 8 6.5V5.5Z" fill="#090E1D"/>
<path d="M16 5.5C16 5.22386 16.2239 5 16.5 5H17.5C17.7761 5 18 5.22386 18 5.5V6.5C18 6.77614 17.7761 7 17.5 7H16.5C16.2239 7 16 6.77614 16 6.5V5.5Z" fill="#090E1D"/>
<path d="M8 9.5C8 9.22386 8.22386 9 8.5 9H9.5C9.77614 9 10 9.22386 10 9.5V10.5C10 10.7761 9.77614 11 9.5 11H8.5C8.22386 11 8 10.7761 8 10.5V9.5Z" fill="#090E1D"/>
<path d="M8 13.5C8 13.2239 8.22386 13 8.5 13H9.5C9.77614 13 10 13.2239 10 13.5V14.5C10 14.7761 9.77614 15 9.5 15H8.5C8.22386 15 8 14.7761 8 14.5V13.5Z" fill="#090E1D"/>
<path d="M12 7.5C12 7.22386 12.2239 7 12.5 7H13.5C13.7761 7 14 7.22386 14 7.5V8.5C14 8.77614 13.7761 9 13.5 9H12.5C12.2239 9 12 8.77614 12 8.5V7.5Z" fill="#090E1D"/>
<path d="M16 9.5C16 9.22386 16.2239 9 16.5 9H17.5C17.7761 9 18 9.22386 18 9.5V10.5C18 10.7761 17.7761 11 17.5 11H16.5C16.2239 11 16 10.7761 16 10.5V9.5Z" fill="#090E1D"/>
<path d="M16 13.5C16 13.2239 16.2239 13 16.5 13H17.5C17.7761 13 18 13.2239 18 13.5V14.5C18 14.7761 17.7761 15 17.5 15H16.5C16.2239 15 16 14.7761 16 14.5V13.5Z" fill="#090E1D"/>
<path d="M12 11.5C12 11.2239 12.2239 11 12.5 11H13.5C13.7761 11 14 11.2239 14 11.5V12.5C14 12.7761 13.7761 13 13.5 13H12.5C12.2239 13 12 12.7761 12 12.5V11.5Z" fill="#090E1D"/>
<path d="M12 15.5C12 15.2239 12.2239 15 12.5 15H13.5C13.7761 15 14 15.2239 14 15.5V16.5C14 16.7761 13.7761 17 13.5 17H12.5C12.2239 17 12 16.7761 12 16.5V15.5Z" fill="#090E1D"/>
</svg>
