<svg width="24" height="24" viewBox="0 0 24 24" fill="none" xmlns="http://www.w3.org/2000/svg">
<path fill-rule="evenodd" clip-rule="evenodd" d="M6 4C3.79086 4 2 5.79086 2 8V12H22V8C22 5.79086 20.2091 4 18 4H6ZM17 7.5C17 7.22386 17.2239 7 17.5 7H18.5C18.7761 7 19 7.22386 19 7.5V8.5C19 8.77614 18.7761 9 18.5 9H17.5C17.2239 9 17 8.77614 17 8.5V7.5ZM14.5 7C14.2239 7 14 7.22386 14 7.5V8.5C14 8.77614 14.2239 9 14.5 9H15.5C15.7761 9 16 8.77614 16 8.5V7.5C16 7.22386 15.7761 7 15.5 7H14.5Z" fill="#090E1D"/>
<path fill-rule="evenodd" clip-rule="evenodd" d="M6 13C3.79086 13 2 14.7909 2 17V21H22V17C22 14.7909 20.2091 13 18 13H6ZM17 16.5C17 16.2239 17.2239 16 17.5 16H18.5C18.7761 16 19 16.2239 19 16.5V17.5C19 17.7761 18.7761 18 18.5 18H17.5C17.2239 18 17 17.7761 17 17.5V16.5ZM14.5 16C14.2239 16 14 16.2239 14 16.5V17.5C14 17.7761 14.2239 18 14.5 18H15.5C15.7761 18 16 17.7761 16 17.5V16.5C16 16.2239 15.7761 16 15.5 16H14.5Z" fill="#090E1D"/>
</svg>
