<svg width="24" height="24" viewBox="0 0 24 24" fill="none" xmlns="http://www.w3.org/2000/svg">
<path d="M2 6C2 3.79086 3.79086 2 6 2H7V4H6C4.89543 4 4 4.89543 4 6V10C4 11.1046 4.89543 12 6 12H10C11.1046 12 12 11.1046 12 10V6C12 4.89543 11.1046 4 10 4H9V2H10C12.2091 2 14 3.79086 14 6V10C14 12.2091 12.2091 14 10 14H9V18C9 19.1046 9.89543 20 11 20H15C16.1046 20 17 19.1046 17 18V11.95C15.8589 11.7184 15 10.7095 15 9.5V8.5C15 7.11929 16.1193 6 17.5 6H18.5C19.8807 6 21 7.11929 21 8.5V9.5C21 10.7095 20.1411 11.7184 19 11.95V18C19 20.2091 17.2091 22 15 22H11C8.79086 22 7 20.2091 7 18V14H6C3.79086 14 2 12.2091 2 10V6Z" fill="#090E1D"/>
</svg>
