<svg width="24" height="24" viewBox="0 0 24 24" fill="none" xmlns="http://www.w3.org/2000/svg">
<path d="M21.7071 6.29288L17.7071 2.29288L16.2929 3.70709L17.5858 5.00003L16.0001 6.58578L11.7072 2.29291L10.293 3.70712L11.5859 5.00001L5.41428 11.1716C3.85218 12.7337 3.85218 15.2663 5.41428 16.8284L5.57119 16.9854L3.29297 19.2636L4.70718 20.6778L6.98541 18.3996L7.17164 18.5858C8.73373 20.1479 11.2664 20.1479 12.8285 18.5858L14.5001 16.9142L11.2929 13.7071L12.7071 12.2929L15.9143 15.5L16.5001 14.9142L13.2929 11.7071L14.7071 10.2929L17.9143 13.5L19.0001 12.4142L20.293 13.7071L21.7072 12.2929L17.4143 8L19 6.41424L20.2929 7.70709L21.7071 6.29288Z" fill="#090E1D"/>
</svg>
