<svg width="24" height="24" viewBox="0 0 24 24" fill="none" xmlns="http://www.w3.org/2000/svg">
<path d="M14 13.874V17.5C14 18.8807 15.1193 20 16.5 20H19.5C20.8807 20 22 18.8807 22 17.5V12.9049C22 12.4153 21.8562 11.9365 21.5865 11.5278L18.6793 7.12289C18.2166 6.42183 17.4327 6 16.5928 6H16.5C15.1193 6 14 7.11929 14 8.5V11.7324C13.4022 11.3866 13 10.7403 13 10V3H11V10C11 10.7403 10.5978 11.3866 10 11.7324V8.5C10 7.11929 8.88071 6 7.5 6H7.40725C6.56726 6 5.78342 6.42183 5.32072 7.12289L2.41348 11.5278C2.14377 11.9365 2 12.4153 2 12.9049V17.5C2 18.8807 3.11929 20 4.5 20H7.5C8.88071 20 10 18.8807 10 17.5V13.874C10.7862 13.6716 11.4789 13.2362 12 12.6458C12.5211 13.2362 13.2138 13.6716 14 13.874Z" fill="#090E1D"/>
</svg>
