<svg width="24" height="24" viewBox="0 0 24 24" fill="none" xmlns="http://www.w3.org/2000/svg">
<path fill-rule="evenodd" clip-rule="evenodd" d="M8.47288 5.89977C10.6524 4.62838 13.3475 4.62838 15.5271 5.89978L22.2827 9.84056C23.9365 10.8053 23.9365 13.1948 22.2827 14.1595L15.5271 18.1002C13.3475 19.3716 10.6524 19.3716 8.47288 18.1002L1.71725 14.1595C0.0634844 13.1948 0.0634913 10.8053 1.71725 9.84056L8.47288 5.89977ZM7.99996 13.5C7.99996 14.8807 9.11925 16 10.5 16H13.5C14.8807 16 16 14.8807 16 13.5V10.5C16 9.11929 14.8807 8 13.5 8L10.5 8C9.11925 8 7.99996 9.11929 7.99996 10.5V13.5ZM10.5 14C10.2238 14 9.99996 13.7761 9.99996 13.5V10.5C9.99996 10.2239 10.2238 10 10.5 10H13.5C13.7761 10 14 10.2239 14 10.5V13.5C14 13.7761 13.7761 14 13.5 14H10.5Z" fill="#090E1D"/>
</svg>
