<svg width="24" height="24" viewBox="0 0 24 24" fill="none" xmlns="http://www.w3.org/2000/svg">
<path d="M6.4 4.8C7.72198 3.03736 9.7967 2 12 2C14.2091 2 16 3.79086 16 6V6.76038C16 7.4686 15.812 8.16412 15.4551 8.77587L14.7456 9.99226C14.744 9.99484 14.7426 9.99742 14.7411 10H15C16.1046 10 17 9.10457 17 8V7H19V8C19 9.19469 18.4762 10.2671 17.6458 11C18.4762 11.7329 19 12.8053 19 14V21H17V14C17 12.8954 16.1046 12 15 12H14.7411C14.7426 12.0026 14.744 12.0052 14.7456 12.0077L15.4551 13.2241C15.812 13.8359 16 14.5314 16 15.2396V16C16 18.2091 14.2091 20 12 20C9.7967 20 7.72198 18.9626 6.4 17.2L6.25 17C3.58333 13.4444 3.58333 8.55556 6.25 5L6.4 4.8Z" fill="#090E1D"/>
</svg>
