<svg width="24" height="24" viewBox="0 0 24 24" fill="none" xmlns="http://www.w3.org/2000/svg">
<path fill-rule="evenodd" clip-rule="evenodd" d="M16 3H8V5H9V7.21988C9 8.0335 8.43722 8.85822 7.52597 9.61621C5.98421 10.8987 5 12.8348 5 15C5 18.866 8.13401 22 12 22C15.866 22 19 18.866 19 15C19 12.8348 18.0158 10.8987 16.474 9.61621C15.5628 8.85822 15 8.03351 15 7.21988V5H16V3ZM11 7.21988V5H13V7.21988C13 8.94917 14.1513 10.2856 15.1951 11.1538C16.0549 11.869 16.6698 12.8646 16.9001 14H7.09991C7.33017 12.8646 7.94512 11.869 8.80495 11.1538C9.84867 10.2856 11 8.94916 11 7.21988Z" fill="#090E1D"/>
</svg>
