<svg width="24" height="24" viewBox="0 0 24 24" fill="none" xmlns="http://www.w3.org/2000/svg">
<path d="M11 6C11 4.89543 10.1046 4 9 4V2C10.1947 2 11.2671 2.52376 12 3.35418C12.7329 2.52376 13.8053 2 15 2V4C13.8954 4 13 4.89543 13 6V6.523L14.2565 6.0204C16.0794 5.29126 18.1619 5.99283 19.172 7.67633L20.0919 9.2095C20.7351 10.2814 20.8401 11.5924 20.3759 12.753L18.0661 18.5275C17.2364 20.6016 14.8113 21.5237 12.8132 20.5246C12.3013 20.2687 11.6988 20.2687 11.1869 20.5246C9.18883 21.5237 6.76366 20.6016 5.93402 18.5275L3.62424 12.753C3.15997 11.5924 3.26502 10.2814 3.90817 9.2095L4.82808 7.67633C5.83818 5.99283 7.92075 5.29126 9.74361 6.0204L11 6.52296V6Z" fill="#090E1D"/>
</svg>
