<svg width="24" height="24" viewBox="0 0 24 24" fill="none" xmlns="http://www.w3.org/2000/svg">
<path d="M11 2V3.5C11 4.88071 12.1193 6 13.5 6C13.7761 6 14 6.22386 14 6.5C14 6.77614 13.7761 7 13.5 7H6.5C5.11929 7 4 8.11929 4 9.5V10.5C4 11.8807 5.11929 13 6.5 13H17.5C17.7761 13 18 13.2239 18 13.5V14.5C18 14.7761 17.7761 15 17.5 15H7.5C6.11929 15 5 16.1193 5 17.5C5 18.8807 6.11929 20 7.5 20H10.5C10.7761 20 11 20.2239 11 20.5V22H13V20.5C13 19.1193 11.8807 18 10.5 18H7.5C7.22386 18 7 17.7761 7 17.5C7 17.2239 7.22386 17 7.5 17H17.5C18.8807 17 20 15.8807 20 14.5V13.5C20 12.1193 18.8807 11 17.5 11H6.5C6.22386 11 6 10.7761 6 10.5V9.5C6 9.22386 6.22386 9 6.5 9H13.5C14.8807 9 16 7.88071 16 6.5C16 5.11929 14.8807 4 13.5 4C13.2239 4 13 3.77614 13 3.5V2H11Z" fill="#090E1D"/>
</svg>
