<svg width="24" height="24" viewBox="0 0 24 24" fill="none" xmlns="http://www.w3.org/2000/svg">
<path fill-rule="evenodd" clip-rule="evenodd" d="M13 2V22H11V2H13ZM15.1895 8.67179L20.4453 5.16794L21.5547 6.83204L16.2989 10.3359C15.1115 11.1275 15.1115 12.8724 16.2989 13.6641L21.5547 17.1679L20.4453 18.832L15.1895 15.3282C12.8146 13.7449 12.8146 10.2551 15.1895 8.67179ZM3.55471 5.16794L8.81048 8.67179C11.1854 10.2551 11.1854 13.7449 8.81049 15.3282L3.55471 18.832L2.44531 17.1679L7.70109 13.6641C8.88855 12.8724 8.88855 11.1275 7.70108 10.3359L2.44531 6.83204L3.55471 5.16794Z" fill="#090E1D"/>
</svg>
