<svg width="24" height="24" viewBox="0 0 24 24" fill="none" xmlns="http://www.w3.org/2000/svg">
<path fill-rule="evenodd" clip-rule="evenodd" d="M7 3.5C7 2.11929 8.11929 1 9.5 1H14.5C15.8807 1 17 2.11929 17 3.5V4.12602C18.7252 4.57006 20 6.13616 20 8V16C20 17.8638 18.7252 19.4299 17 19.874V20.5C17 21.8807 15.8807 23 14.5 23H9.5C8.11929 23 7 21.8807 7 20.5V19.874C5.27477 19.4299 4 17.8638 4 16V8C4 6.13616 5.27477 4.57006 7 4.12602V3.5ZM9 4H15V3.5C15 3.22386 14.7761 3 14.5 3H9.5C9.22386 3 9 3.22386 9 3.5V4ZM9 20V20.5C9 20.7761 9.22386 21 9.5 21H14.5C14.7761 21 15 20.7761 15 20.5V20H9ZM11 9V11H9V13H11V15H13V13H15V11H13V9H11Z" fill="#090E1D"/>
</svg>
