<svg width="24" height="24" viewBox="0 0 24 24" fill="none" xmlns="http://www.w3.org/2000/svg">
<path d="M7.62614 12.2929C7.46438 12.4547 7.20211 12.4547 7.04035 12.2929C6.09754 11.3501 4.56894 11.3501 3.62613 12.2929L2.35345 13.5656C1.37714 14.5419 1.37714 16.1248 2.35345 17.1011L2.85346 17.6011C3.3223 18.07 3.95818 18.3333 4.62122 18.3333H5.16658C5.44272 18.3333 5.66658 18.5572 5.66658 18.8333L5.66658 19.3787C5.66658 20.0417 5.92997 20.6776 6.39881 21.1465L6.89882 21.6465C7.87513 22.6228 9.45804 22.6228 10.4344 21.6465L11.707 20.3738C12.6498 19.431 12.6498 17.9024 11.707 16.9596C11.5453 16.7978 11.5453 16.5355 11.707 16.3738L16.3737 11.7071C16.5355 11.5454 16.7978 11.5454 16.9595 11.7071C17.9024 12.6499 19.431 12.6499 20.3738 11.7071L21.6464 10.4344C22.6228 9.45813 22.6228 7.87522 21.6464 6.89891L21.1464 6.3989C20.6776 5.93006 20.0417 5.66667 19.3787 5.66667H18.8333C18.5572 5.66667 18.3333 5.44281 18.3333 5.16667V4.62131C18.3333 3.95827 18.0699 3.32239 17.6011 2.85355L17.1011 2.35354C16.1248 1.37723 14.5419 1.37723 13.5655 2.35354L12.2929 3.62622C11.35 4.56903 11.35 6.09763 12.2929 7.04044C12.4546 7.2022 12.4546 7.46447 12.2929 7.62623L7.62614 12.2929Z" fill="#090E1D"/>
</svg>
