<svg width="24" height="24" viewBox="0 0 24 24" fill="none" xmlns="http://www.w3.org/2000/svg">
<path d="M8.02455 4.09608C8.99446 3.90315 9.99979 4.00217 10.9134 4.38061C11.8271 4.75904 12.6079 5.39991 13.1574 6.22215L14.8203 5.11101C14.0511 3.95987 12.9579 3.06266 11.6788 2.53285C10.3997 2.00303 8.99224 1.86441 7.63437 2.13451C6.2765 2.4046 5.02922 3.07129 4.05026 4.05026C3.07129 5.02922 2.4046 6.2765 2.13451 7.63437C1.86441 8.99224 2.00303 10.3997 2.53285 11.6788C3.06266 12.9579 3.95987 14.0511 5.11101 14.8203L6.22215 13.1574C5.39991 12.6079 4.75904 11.8271 4.38061 10.9134C4.00217 9.99979 3.90315 8.99446 4.09608 8.02455C4.289 7.05465 4.76521 6.16373 5.46447 5.46447C6.16373 4.76521 7.05465 4.289 8.02455 4.09608Z" fill="#090E1D"/>
<path d="M15 8C11.134 8 8 11.134 8 15C8 16.5723 8.5184 18.0236 9.39362 19.1922L19.1922 9.39362C18.0236 8.5184 16.5723 8 15 8Z" fill="#090E1D"/>
<path d="M15 22C13.4277 22 11.9764 21.4816 10.8078 20.6064L20.6064 10.8078C21.4816 11.9764 22 13.4277 22 15C22 18.866 18.866 22 15 22Z" fill="#090E1D"/>
</svg>
