<svg width="24" height="24" viewBox="0 0 24 24" fill="none" xmlns="http://www.w3.org/2000/svg">
<path fill-rule="evenodd" clip-rule="evenodd" d="M18 8.82929C19.1652 8.41746 20 7.30622 20 6C20 4.34315 18.6569 3 17 3H7C5.34315 3 4 4.34315 4 6C4 7.30622 4.83481 8.41746 6 8.82929V18C6 20.2091 7.79086 22 10 22H14C16.2091 22 18 20.2091 18 18V8.82929ZM17 7C17.5523 7 18 6.55228 18 6C18 5.44772 17.5523 5 17 5L17 7ZM7 7C6.44772 7 6 6.55228 6 6C6 5.44772 6.44772 5 7 5L7 7ZM9 7H11V5H9V7ZM13 7H15V5H13V7ZM11 11V13H9V15H11V17H13V15H15V13H13V11H11Z" fill="#090E1D"/>
</svg>
