<svg width="24" height="24" viewBox="0 0 24 24" fill="none" xmlns="http://www.w3.org/2000/svg">
<path d="M15.435 3.70706L17.5563 5.82838C18.3374 6.60943 18.3374 7.87576 17.5563 8.65681L17.178 9.03516C17.0026 8.37849 16.6574 7.75776 16.1422 7.2426L14.0209 5.12128L12.6066 6.53549L14.728 8.65681C15.5059 9.43472 15.509 10.694 14.7374 11.4758L14.3495 11.8636C14.1741 11.207 13.8289 10.5862 13.3137 10.071L11.1924 7.94971L9.77816 9.36392L11.8995 11.4852C12.6804 12.2661 12.6805 13.5321 11.8999 14.3132C11.8998 14.3134 11.9001 14.3131 11.8999 14.3132L5.53552 20.6776L6.94974 22.0918L13.3137 15.7279C13.3142 15.7274 13.3147 15.7269 13.3152 15.7263L16.1422 12.8995C16.1466 12.895 16.1511 12.8905 16.1555 12.8861L18.9706 10.071C20.5326 8.50892 20.5326 5.97626 18.9706 4.41417L16.8492 2.29285L15.435 3.70706Z" fill="#090E1D"/>
</svg>
