<svg width="24" height="24" viewBox="0 0 24 24" fill="none" xmlns="http://www.w3.org/2000/svg">
<path d="M5 2C2.79086 2 1 3.79086 1 6V10.5C1 11.7095 1.85888 12.7184 3 12.95V18C3 20.2091 4.79086 22 7 22H9V20H7C5.89543 20 5 19.1046 5 18V13H5.5C6.0628 13 6.58217 12.814 7 12.5002C7.41783 12.814 7.9372 13 8.5 13H10.5C11.8807 13 13 11.8807 13 10.5V9H11V10.5C11 10.7761 10.7761 11 10.5 11H8.5C8.22386 11 8 10.7761 8 10.5V9H6V10.5C6 10.7761 5.77614 11 5.5 11H3.5C3.22386 11 3 10.7761 3 10.5V6C3 4.89543 3.89543 4 5 4H19C20.1046 4 21 4.89543 21 6V8H23V6C23 3.79086 21.2091 2 19 2H5Z" fill="#090E1D"/>
<path d="M20.7678 9.35354C19.7915 8.37723 18.2086 8.37723 17.2323 9.35354L14.5 12.0858L19.9142 17.5L22.6465 14.7678C23.6228 13.7914 23.6228 12.2085 22.6465 11.2322L20.7678 9.35354Z" fill="#090E1D"/>
<path d="M10.3536 16.2322L13.0858 13.5L18.5 18.9142L15.7678 21.6464C14.7915 22.6227 13.2086 22.6227 12.2323 21.6464L10.3536 19.7678C9.37726 18.7914 9.37726 17.2085 10.3536 16.2322Z" fill="#090E1D"/>
</svg>
