<svg width="24" height="24" viewBox="0 0 24 24" fill="none" xmlns="http://www.w3.org/2000/svg">
<path d="M11.9554 3.4604C12.8953 3.92847 13.4499 4.94763 13.3203 6.00003H15C17.2091 6.00003 19 7.79089 19 10V16C19 16.8233 18.7513 17.5886 18.3248 18.2246C19.8829 18.7714 21 20.2552 21 22H19C19 20.8955 18.1046 20 17 20H9C7.89543 20 7 20.8955 7 22H5C5 20.2552 6.11714 18.7714 7.67518 18.2246C7.24874 17.5886 7 16.8233 7 16H5V14H11V16H9C9 17.1046 9.89543 18 11 18H15C16.1046 18 17 17.1046 17 16V10C17 8.89546 16.1046 8.00003 15 8.00003H12.8096L12.2179 10.2083C11.9049 11.3765 10.8141 12.1287 9.65194 12.0571L9.38016 13.0714L7.4483 12.5538L7.72009 11.5395C6.67781 11.0204 6.10932 9.82362 6.42235 8.65536L7.45763 4.79165C7.77066 3.6234 8.86137 2.8712 10.0235 2.94278L10.2953 1.92859L12.2271 2.44623L11.9554 3.4604Z" fill="#090E1D"/>
</svg>
