<svg width="24" height="24" viewBox="0 0 24 24" fill="none" xmlns="http://www.w3.org/2000/svg">
<path d="M8.5 12C8.22386 12 8 12.2239 8 12.5V13.5C8 13.7761 8.22386 14 8.5 14H9.5C9.77614 14 10 13.7761 10 13.5V12.5C10 12.2239 9.77614 12 9.5 12H8.5Z" fill="#090E1D"/>
<path d="M14.5 12C14.2239 12 14 12.2239 14 12.5V13.5C14 13.7761 14.2239 14 14.5 14H15.5C15.7761 14 16 13.7761 16 13.5V12.5C16 12.2239 15.7761 12 15.5 12H14.5Z" fill="#090E1D"/>
<path fill-rule="evenodd" clip-rule="evenodd" d="M3 10C3 7.79086 4.79086 6 7 6H17C19.2091 6 21 7.79086 21 10V12H22V14H21V16C21 18.2091 19.2091 20 17 20H7C4.79086 20 3 18.2091 3 16V14H2V12H3V10ZM7 8C5.89543 8 5 8.89543 5 10V16C5 17.1046 5.89543 18 7 18H17C18.1046 18 19 17.1046 19 16V10C19 8.89543 18.1046 8 17 8V8.5C17 9.88071 15.8807 11 14.5 11H9.5C8.11929 11 7 9.88071 7 8.5V8Z" fill="#090E1D"/>
</svg>
