<svg width="24" height="24" viewBox="0 0 24 24" fill="none" xmlns="http://www.w3.org/2000/svg">
<path d="M12.1715 3.41425C13.7336 1.85215 16.2663 1.85215 17.8284 3.41425L19.5858 5.17161C21.1479 6.73371 21.1479 9.26637 19.5858 10.8285L16.3494 14.0649C15.791 14.6233 15.0798 15.0039 14.3054 15.1588L11.5828 15.7033C10.7245 15.8749 9.8453 15.7301 9.0989 15.3153L3.70706 20.7072L2.29285 19.2929L7.68469 13.9011C7.2699 13.1547 7.12508 12.2755 7.29675 11.4172L7.84126 8.69461C7.99613 7.92024 8.37675 7.20905 8.93515 6.65064L12.1715 3.41425Z" fill="#090E1D"/>
<path d="M18 16C16.3431 16 15 17.3432 15 19C15 20.6569 16.3431 22 18 22C19.6569 22 21 20.6569 21 19C21 17.3432 19.6569 16 18 16Z" fill="#090E1D"/>
</svg>
