<svg width="24" height="24" viewBox="0 0 24 24" fill="none" xmlns="http://www.w3.org/2000/svg">
<path d="M13.4145 5.00013L11.8286 3.41431C10.2666 1.85223 7.73394 1.85221 6.17183 3.41426L5.50011 4.08596L4.70706 3.29291L3.29285 4.70712L4.08587 5.50015L3.41442 6.17157C1.85228 7.73366 1.85225 10.2664 3.41437 11.8285L5.00024 13.4143L8.50016 9.91443L14.0859 15.5002L10.5859 19L12.879 21.293C14.0505 22.4646 15.95 22.4646 17.1216 21.293L18.5002 19.9144L19.2928 20.7071L20.7071 19.2929L19.9144 18.5002L21.2932 17.1214C22.4648 15.9499 22.4648 14.0504 21.2932 12.8788L19.0003 10.5859L15.5001 14.086L9.91437 8.50022L13.4145 5.00013Z" fill="#090E1D"/>
</svg>
