<svg width="24" height="24" viewBox="0 0 24 24" fill="none" xmlns="http://www.w3.org/2000/svg">
<path d="M13.5 1C12.6716 1 12 1.67157 12 2.5V3.5C12 4.32843 12.6716 5 13.5 5H14.5C15.3284 5 16 4.32843 16 3.5V2.5C16 1.67157 15.3284 1 14.5 1H13.5Z" fill="#090E1D"/>
<path d="M12 14.98C11.4436 17.4284 9.0375 18.9875 6.57542 18.4951L4.4903 18.078C4.21952 18.0239 4.04391 17.7605 4.09806 17.4897L4.30156 16.4722C4.35587 16.2007 4.62052 16.025 4.89183 16.0804L6.34202 16.3763C7.97265 16.7091 9.56253 15.6509 9.88504 14.0183L10.9 8.87998C9.81481 9.302 9.1 10.3469 9.1 11.5113V12.48C9.1 12.7561 8.87615 12.98 8.6 12.98H7.6C7.32386 12.98 7.1 12.7561 7.1 12.48V11.5937C7.1 9.58508 8.30195 7.77146 10.1518 6.98883L11.7396 6.31708C12.1094 6.16061 12.5035 6.04852 12.9014 5.9941C12.9638 5.98557 13.0291 5.97998 13.1 5.97998C13.8 5.97998 14.4 6.37998 14.8 6.97998L15.8 8.57998C16.5289 9.85549 17.9218 10.799 19.6006 10.9567C19.8755 10.9825 20.1 11.2038 20.1 11.48V12.48C20.1 12.7561 19.8757 12.9818 19.6003 12.9627C17.599 12.8245 15.8008 11.8656 14.6 10.48L14.2225 12.3673C14.084 13.06 14.3102 13.7754 14.8217 14.2625C15.638 15.04 16.1 16.118 16.1 17.2453V22.48C16.1 22.7561 15.8761 22.98 15.6 22.98H14.6C14.3239 22.98 14.1 22.7561 14.1 22.48V18.2657C14.1 17.4447 13.7635 16.6595 13.169 16.0933L12 14.98Z" fill="#090E1D"/>
</svg>
