<svg width="24" height="24" viewBox="0 0 24 24" fill="none" xmlns="http://www.w3.org/2000/svg">
<path d="M12.5 1C11.6716 1 11 1.67157 11 2.5V3.5C11 4.32843 11.6716 5 12.5 5H13.5C14.3284 5 15 4.32843 15 3.5V2.5C15 1.67157 14.3284 1 13.5 1H12.5Z" fill="#090E1D"/>
<path d="M7.11863 22.4026L9.8 8.89999C8.71481 9.32201 8 10.367 8 11.5313V12.5C8 12.7761 7.77614 13 7.5 13H6.5C6.22386 13 6 12.7761 6 12.5V11.6116C6 9.60406 7.2007 7.79118 9.04912 7.00789L11.05 6.16C12.02 5.75 13.14 6.11 13.7 7L14.7 8.6C15.4289 9.8755 16.8218 10.819 18.5006 10.9767C18.7755 11.0025 19 11.2239 19 11.5V12.5C19 12.7761 18.7757 13.0018 18.5003 12.9828C16.4989 12.8445 14.7008 11.8856 13.5 10.5L13.1225 12.3873C12.984 13.08 13.2102 13.7954 13.7217 14.2826C14.538 15.06 15 16.138 15 17.2653V22.5C15 22.7761 14.7761 23 14.5 23H13.5C13.2239 23 13 22.7761 13 22.5V18.2857C13 17.4647 12.6635 16.6795 12.069 16.1133L10.9 15L9.18781 22.6098C9.13647 22.8379 8.93385 23 8.7 23H7.60905C7.29381 23 7.05723 22.7118 7.11863 22.4026Z" fill="#090E1D"/>
</svg>
