<svg width="24" height="24" viewBox="0 0 24 24" fill="none" xmlns="http://www.w3.org/2000/svg">
<path d="M12.5 1C11.6716 1 11 1.67157 11 2.5V3.5C11 4.32843 11.6716 5 12.5 5H13.5C14.3284 5 15 4.32843 15 3.5V2.5C15 1.67157 14.3284 1 13.5 1H12.5Z" fill="#090E1D"/>
<path d="M14.7 8.6C15.28 9.61 16.27 10.41 17.5 10.78V9.5C17.5 9.22386 17.7239 9 18 9H18.5C18.7762 9 19 9.22386 19 9.5V22.5C19 22.7761 18.7762 23 18.5 23H18C17.7239 23 17.5 22.7761 17.5 22.5V12.84C15.91 12.51 14.5 11.65 13.5 10.5L12.9 13.5L13.138 13.7266C14.3271 14.8591 15 16.4294 15 18.0714V22.5C15 22.7761 14.7762 23 14.5 23H13.5C13.2239 23 13 22.7761 13 22.5V18.2857C13 17.4647 12.6636 16.6795 12.069 16.1133L10.9 15L9.18785 22.6098C9.13652 22.8379 8.9339 23 8.70004 23H7.60856C7.29349 23 7.05624 22.7157 7.11734 22.4067C7.66062 19.6586 9.91306 8.26613 10.08 7.44C10.27 6.5 11.08 6 11.86 6C12.59 6 13.29 6.35 13.7 7L14.7 8.6Z" fill="#090E1D"/>
<path d="M5.31004 12.72L7.43004 13.13L8.78004 6.27L7.62004 6.04C6.54004 5.83 5.49004 6.54 5.28004 7.62L4.52004 11.55C4.41004 12.09 4.77004 12.61 5.31004 12.72Z" fill="#090E1D"/>
</svg>
