<svg width="24" height="24" viewBox="0 0 24 24" fill="none" xmlns="http://www.w3.org/2000/svg">
<path d="M14.5 1C13.6716 1 13 1.67157 13 2.5V3.5C13 4.32843 13.6716 5 14.5 5H15.5C16.3284 5 17 4.32843 17 3.5V2.5C17 1.67157 16.3284 1 15.5 1H14.5Z" fill="#090E1D"/>
<path d="M14 8.9L13.2 8.1L10.8 10.5L11.3358 11.0602C12.4038 12.1768 13 13.6624 13 15.2075V18.5C13 18.7761 12.7761 19 12.5 19H11.5C11.2238 19 11 18.7761 11 18.5V15.3613C11 14.4962 10.6265 13.6732 9.97547 13.1036L7.79995 11.2C7.39995 10.9 7.19995 10.4 7.19995 9.8C7.19995 9.3 7.39995 8.8 7.79995 8.4L10.4492 5.75076C10.4956 5.70434 10.5396 5.65555 10.5837 5.60676C10.6348 5.55005 10.686 5.49334 10.7409 5.44036C11.0453 5.14679 11.4859 5 12 5C12.6 5 13.1 5.2 13.6 5.6L15.5 7.5C16.2977 8.29778 17.3312 8.85984 18.6005 8.97722C18.8754 9.00265 19.1 9.22386 19.1 9.5V10.5C19.1 10.7761 18.8756 11.0018 18.6 10.9846C16.7285 10.8678 15.1952 10.0952 14 8.9Z" fill="#090E1D"/>
<path fill-rule="evenodd" clip-rule="evenodd" d="M14 15C14 13.3431 15.3431 12 17 12H20C21.6569 12 23 13.3431 23 15V18C23 19.6569 21.6569 21 20 21H17C15.3431 21 14 19.6569 14 18V15ZM17 14H20C20.5523 14 21 14.4477 21 15V18C21 18.5523 20.5523 19 20 19H17C16.4477 19 16 18.5523 16 18V15C16 14.4477 16.4477 14 17 14Z" fill="#090E1D"/>
<path fill-rule="evenodd" clip-rule="evenodd" d="M4 12C2.34315 12 1 13.3431 1 15V18C1 19.6569 2.34315 21 4 21H7C8.65685 21 10 19.6569 10 18V15C10 13.3431 8.65685 12 7 12H4ZM7 14H4C3.44772 14 3 14.4477 3 15V18C3 18.5523 3.44772 19 4 19H7C7.55228 19 8 18.5523 8 18V15C8 14.4477 7.55228 14 7 14Z" fill="#090E1D"/>
</svg>
