<svg width="24" height="24" viewBox="0 0 24 24" fill="none" xmlns="http://www.w3.org/2000/svg">
<path d="M15 13H21V5.24264C21 4.44699 20.6839 3.68393 20.1213 3.12132L18.8787 1.87868C18.3161 1.31607 17.553 1 16.7574 1H16C14.3431 1 13 2.34315 13 4V7.09167C13 7.68395 13.1753 8.26297 13.5038 8.75577L14.4962 10.2442C14.8247 10.737 15 11.3161 15 11.9083V13Z" fill="#090E1D"/>
<path d="M4 18H10V17.4542C10 17.158 10.0877 16.8685 10.2519 16.6221L11.4962 14.7558C11.8247 14.263 12 13.6839 12 13.0917V10C12 8.34315 10.6569 7 9 7H8.24264C7.44699 7 6.68393 7.31607 6.12132 7.87868L4.87868 9.12132C4.31607 9.68393 4 10.447 4 11.2426V18Z" fill="#090E1D"/>
<path d="M10 19H4V21.5C4 22.3284 4.67157 23 5.5 23H8.5C9.32843 23 10 22.3284 10 21.5V19Z" fill="#090E1D"/>
<path d="M15 14H21V16.5C21 17.3284 20.3284 18 19.5 18H16.5C15.6716 18 15 17.3284 15 16.5V14Z" fill="#090E1D"/>
</svg>
