<svg width="24" height="24" viewBox="0 0 24 24" fill="none" xmlns="http://www.w3.org/2000/svg">
<path fill-rule="evenodd" clip-rule="evenodd" d="M15.2769 4.93753C13.6845 2.66266 10.3155 2.66267 8.72307 4.93754L5.32769 9.78808C4.46352 11.0226 4 12.4931 4 14C4 15.0506 4.20693 16.0909 4.60896 17.0615C5.011 18.0321 5.60028 18.914 6.34315 19.6569C7.08601 20.3997 7.96793 20.989 8.93853 21.391C9.90914 21.7931 10.9494 22 12 22C13.0506 22 14.0909 21.7931 15.0615 21.391C16.0321 20.989 16.914 20.3997 17.6569 19.6569C18.3997 18.914 18.989 18.0321 19.391 17.0615C19.7931 16.0909 20 15.0506 20 14C20 12.4931 19.5365 11.0226 18.6723 9.78807L15.2769 4.93753ZM11 10.5C11 10.2239 11.2239 10 11.5 10H12.5C12.7761 10 13 10.2239 13 10.5V11.5C13 11.7761 12.7761 12 12.5 12H11.5C11.2239 12 11 11.7761 11 11.5V10.5ZM11.5 16C11.2239 16 11 16.2239 11 16.5V17.5C11 17.7761 11.2239 18 11.5 18H12.5C12.7761 18 13 17.7761 13 17.5V16.5C13 16.2239 12.7761 16 12.5 16H11.5ZM8 13.5C8 13.2239 8.22386 13 8.5 13H9.5C9.77614 13 10 13.2239 10 13.5V14.5C10 14.7761 9.77614 15 9.5 15H8.5C8.22386 15 8 14.7761 8 14.5V13.5ZM14.5 13C14.2239 13 14 13.2239 14 13.5V14.5C14 14.7761 14.2239 15 14.5 15H15.5C15.7761 15 16 14.7761 16 14.5V13.5C16 13.2239 15.7761 13 15.5 13H14.5Z" fill="#090E1D"/>
</svg>
