<svg width="24" height="24" viewBox="0 0 24 24" fill="none" xmlns="http://www.w3.org/2000/svg">
<path fill-rule="evenodd" clip-rule="evenodd" d="M8.72307 4.93754C10.3155 2.66267 13.6845 2.66266 15.2769 4.93753L18.6723 9.78807C19.5365 11.0226 20 12.4931 20 14C20 15.0506 19.7931 16.0909 19.391 17.0615C18.989 18.0321 18.3997 18.914 17.6569 19.6569C16.914 20.3997 16.0321 20.989 15.0615 21.391C14.0909 21.7931 13.0506 22 12 22C10.9494 22 9.90914 21.7931 8.93853 21.391C7.96793 20.989 7.08601 20.3997 6.34315 19.6569C5.60028 18.914 5.011 18.0321 4.60896 17.0615C4.20693 16.0909 4 15.0506 4 14C4 12.4931 4.46352 11.0226 5.32769 9.78808L8.72307 4.93754ZM10.3371 15.1111C10.1173 14.7822 10 14.3956 10 14H8C8 14.7911 8.2346 15.5645 8.67412 16.2223C9.11365 16.8801 9.73836 17.3928 10.4693 17.6955C11.2002 17.9983 12.0044 18.0775 12.7804 17.9231C13.5563 17.7688 14.269 17.3878 14.8284 16.8284L13.4142 15.4142C13.1345 15.6939 12.7781 15.8844 12.3902 15.9616C12.0022 16.0387 11.6001 15.9991 11.2346 15.8478C10.8692 15.6964 10.5568 15.44 10.3371 15.1111Z" fill="#090E1D"/>
</svg>
