<svg width="24" height="24" viewBox="0 0 24 24" fill="none" xmlns="http://www.w3.org/2000/svg">
<path fill-rule="evenodd" clip-rule="evenodd" d="M4 3V13C4 15.2091 5.79086 17 8 17H14C16.2091 17 18 15.2091 18 13V9.94999C18.1616 9.98278 18.3288 10 18.5 10H19.5C20.8807 10 22 8.88071 22 7.5V5.5C22 4.11929 20.8807 3 19.5 3H4ZM18.5 8C18.2239 8 18 7.77614 18 7.5V5H19.5C19.7761 5 20 5.22386 20 5.5V7.5C20 7.77614 19.7761 8 19.5 8H18.5Z" fill="#090E1D"/>
<path d="M2 17C2 19.2091 3.79086 21 6 21H16C18.2091 21 20 19.2091 20 17H18C18 18.1046 17.1046 19 16 19H6C4.89543 19 4 18.1046 4 17H2Z" fill="#090E1D"/>
</svg>
