<svg width="24" height="24" viewBox="0 0 24 24" fill="none" xmlns="http://www.w3.org/2000/svg">
<path fill-rule="evenodd" clip-rule="evenodd" d="M4 8.8626C4 5.07249 7.07249 2 10.8626 2C11.4908 2 12 2.50923 12 3.1374V8.5C12 8.77614 12.2239 9 12.5 9H13.5C13.7761 9 14 8.77614 14 8.5V6.23529C14 5.55306 14.5531 5 15.2353 5C17.8668 5 20 7.13323 20 9.76471V13C20 17.4183 16.4183 21 12 21C7.58172 21 4 17.4183 4 13V8.8626ZM15 17C15 17.394 14.9224 17.7841 14.7716 18.1481C14.6209 18.512 14.3999 18.8427 14.1213 19.1213C13.8427 19.3999 13.512 19.6209 13.1481 19.7716C12.7841 19.9224 12.394 20 12 20C11.606 20 11.2159 19.9224 10.8519 19.7716C10.488 19.6209 10.1573 19.3999 9.87868 19.1213C9.6001 18.8427 9.37913 18.512 9.22836 18.1481C9.0776 17.7841 9 17.394 9 17C9 16.3597 9.25435 15.7456 9.70711 15.2929L10.9393 14.0607C11.5251 13.4749 12.4749 13.4749 13.0607 14.0607L14.2929 15.2929C14.7456 15.7456 15 16.3597 15 17Z" fill="#090E1D"/>
</svg>
