<svg width="24" height="24" viewBox="0 0 24 24" fill="none" xmlns="http://www.w3.org/2000/svg">
<path fill-rule="evenodd" clip-rule="evenodd" d="M2 6C2 3.79086 3.79086 2 6 2H18C20.2091 2 22 3.79086 22 6V18C22 20.2091 20.2091 22 18 22H6C3.79086 22 2 20.2091 2 18V6ZM7.5 8C7.22386 8 7 8.22386 7 8.5V9.5C7 9.77614 7.22386 10 7.5 10H8.5C8.77614 10 9 9.77614 9 9.5V8.5C9 8.22386 8.77614 8 8.5 8H7.5ZM15 8.5C15 8.22386 15.2239 8 15.5 8H16.5C16.7761 8 17 8.22386 17 8.5V9.5C17 9.77614 16.7761 10 16.5 10H15.5C15.2239 10 15 9.77614 15 9.5V8.5ZM8.5 13C7.11929 13 6 14.1193 6 15.5V17V18H7H17H18V17V15.5C18 14.1193 16.8807 13 15.5 13H8.5ZM8 15.5C8 15.2239 8.22386 15 8.5 15H15.5C15.7761 15 16 15.2239 16 15.5V16H8V15.5Z" fill="#090E1D"/>
</svg>
