<svg width="24" height="24" viewBox="0 0 24 24" fill="none" xmlns="http://www.w3.org/2000/svg">
<path fill-rule="evenodd" clip-rule="evenodd" d="M2 6C2 3.79086 3.79086 2 6 2H18C20.2091 2 22 3.79086 22 6V18C22 20.2091 20.2091 22 18 22H6C3.79086 22 2 20.2091 2 18V6ZM8.5 14C7.11929 14 6 15.1193 6 16.5V18H8V16.5C8 16.2239 8.22386 16 8.5 16H15.5C15.7761 16 16 16.2239 16 16.5V18H18V16.5C18 15.1193 16.8807 14 15.5 14H8.5ZM15 10.4142L13.7071 11.7071L12.2929 10.2929L13.5858 9L12.2929 7.70711L13.7071 6.29289L15 7.58579L16.2929 6.29289L17.7071 7.70711L16.4142 9L17.7071 10.2929L16.2929 11.7071L15 10.4142ZM9 10.4142L7.70711 11.7071L6.29289 10.2929L7.58579 9L6.29289 7.70711L7.70711 6.29289L9 7.58579L10.2929 6.29289L11.7071 7.70711L10.4142 9L11.7071 10.2929L10.2929 11.7071L9 10.4142Z" fill="#090E1D"/>
</svg>
