<svg width="24" height="24" viewBox="0 0 24 24" fill="none" xmlns="http://www.w3.org/2000/svg">
<path fill-rule="evenodd" clip-rule="evenodd" d="M14.7072 8.29293L16.2931 9.8788C17.4646 11.0504 17.4646 12.9499 16.2931 14.1214L14.7072 15.7073L13.293 14.2931L14.8789 12.7072C15.2694 12.3167 15.2694 11.6835 14.8789 11.293L13.293 9.70714L14.7072 8.29293Z" fill="#090E1D"/>
<path fill-rule="evenodd" clip-rule="evenodd" d="M19.2928 15.7073L17.7069 14.1214C16.5354 12.9499 16.5354 11.0504 17.7069 9.8788L19.2928 8.29293L20.707 9.70714L19.1211 11.293C18.7306 11.6835 18.7306 12.3167 19.1211 12.7072L20.707 14.2931L19.2928 15.7073Z" fill="#090E1D"/>
<path fill-rule="evenodd" clip-rule="evenodd" d="M4.70719 8.29293L6.29307 9.8788C7.46464 11.0504 7.46464 12.9499 6.29307 14.1214L4.70719 15.7073L3.29298 14.2931L4.87885 12.7072C5.26938 12.3167 5.26938 11.6835 4.87885 11.293L3.29298 9.70714L4.70719 8.29293Z" fill="#090E1D"/>
<path fill-rule="evenodd" clip-rule="evenodd" d="M9.29281 15.7073L7.70693 14.1214C6.53536 12.9499 6.53536 11.0504 7.70693 9.8788L9.29281 8.29293L10.707 9.70714L9.12115 11.293C8.73062 11.6835 8.73062 12.3167 9.12115 12.7072L10.707 14.2931L9.29281 15.7073Z" fill="#090E1D"/>
</svg>
