<svg width="24" height="24" viewBox="0 0 24 24" fill="none" xmlns="http://www.w3.org/2000/svg">
<path fill-rule="evenodd" clip-rule="evenodd" d="M10.1972 4H2V2H11.3486C12.2606 2 13 2.73935 13 3.65139C13 4.20353 12.7241 4.71915 12.2646 5.02543L4.80278 10H13V12H3.65139C2.73935 12 2 11.2606 2 10.3486C2 9.79647 2.27595 9.28085 2.73536 8.97457L10.1972 4Z" fill="#090E1D"/>
<path fill-rule="evenodd" clip-rule="evenodd" d="M19.1972 12H14V10H20.3486C21.2606 10 22 10.7394 22 11.6514C22 12.2035 21.7241 12.7191 21.2646 13.0254L16.8028 16H22V18H15.6514C14.7394 18 14 17.2606 14 16.3486C14 15.7965 14.2759 15.2808 14.7354 14.9746L19.1972 12Z" fill="#090E1D"/>
<path fill-rule="evenodd" clip-rule="evenodd" d="M11.0563 18H7V16H12.3615C13.2664 16 14 16.7336 14 17.6385C14 18.214 13.698 18.7474 13.2045 19.0435L9.94365 21H14V23H8.63849C7.73358 23 7 22.2664 7 21.3615C7 20.786 7.30197 20.2526 7.79549 19.9565L11.0563 18Z" fill="#090E1D"/>
</svg>
