<svg width="24" height="24" viewBox="0 0 24 24" fill="none" xmlns="http://www.w3.org/2000/svg">
<path d="M12 3V10C12 11.6569 10.6569 13 9 13V13" stroke="#0F67FE" stroke-width="2"/>
<path d="M12 3V10C12 11.6569 13.3431 13 15 13V13" stroke="#0F67FE" stroke-width="2"/>
<path d="M3 12.9049V17.5C3 18.3284 3.67157 19 4.5 19H7.5C8.32843 19 9 18.3284 9 17.5V8.5C9 7.67157 8.32843 7 7.5 7H7.40725C6.90326 7 6.43295 7.2531 6.15533 7.67374L3.24809 12.0787C3.08626 12.3238 3 12.6111 3 12.9049Z" stroke="#090E1D" stroke-width="2"/>
<path d="M21 12.9049V17.5C21 18.3284 20.3284 19 19.5 19H16.5C15.6716 19 15 18.3284 15 17.5V8.5C15 7.67157 15.6716 7 16.5 7H16.5928C17.0967 7 17.567 7.2531 17.8447 7.67374L20.7519 12.0787C20.9137 12.3238 21 12.6111 21 12.9049Z" stroke="#090E1D" stroke-width="2"/>
</svg>
