<svg width="24" height="24" viewBox="0 0 24 24" fill="none" xmlns="http://www.w3.org/2000/svg">
<path d="M19 10H5" stroke="#0F67FE" stroke-width="2"/>
<path d="M19 14H5" stroke="#0F67FE" stroke-width="2"/>
<path d="M11.2529 6.19212C11.743 6.06609 12.257 6.06609 12.7471 6.19212L16.7471 7.22069C18.0731 7.56165 19 8.75707 19 10.1262V13.8738C19 15.2429 18.0731 16.4383 16.7471 16.7793L12.7471 17.8079C12.257 17.9339 11.743 17.9339 11.2529 17.8079L7.25288 16.7793C5.92691 16.4383 5 15.2429 5 13.8738V10.1262C5 8.75707 5.92691 7.56165 7.25288 7.22069L11.2529 6.19212Z" stroke="#090E1D" stroke-width="2"/>
<path d="M18 8L21 5" stroke="#090E1D" stroke-width="2"/>
<path d="M6 8L3 5" stroke="#090E1D" stroke-width="2"/>
<path d="M18 16L21 19" stroke="#090E1D" stroke-width="2"/>
<path d="M6 16L3 19" stroke="#090E1D" stroke-width="2"/>
</svg>
