<svg width="24" height="24" viewBox="0 0 24 24" fill="none" xmlns="http://www.w3.org/2000/svg">
<path d="M14 11H15C16.6569 11 18 9.65685 18 8V7" stroke="#0F67FE" stroke-width="2"/>
<path d="M14 11H15C16.6569 11 18 12.3431 18 14V21" stroke="#0F67FE" stroke-width="2"/>
<path d="M7.05 5.6L7.2 5.4C8.33313 3.88917 10.1115 3 12 3C13.6569 3 15 4.34315 15 6V6.76038C15 7.29154 14.859 7.81319 14.5913 8.27199L13.8818 9.48839C13.3369 10.4225 13.3369 11.5775 13.8818 12.5116L14.5913 13.728C14.859 14.1868 15 14.7085 15 15.2396V16C15 17.6569 13.6569 19 12 19C10.1115 19 8.33313 18.1108 7.2 16.6L7.05 16.4C4.65 13.2 4.65 8.8 7.05 5.6Z" stroke="#090E1D" stroke-width="2"/>
</svg>
