<svg width="24" height="24" viewBox="0 0 24 24" fill="none" xmlns="http://www.w3.org/2000/svg">
<path d="M12 2V3.5C12 4.32843 12.6716 5 13.5 5V5C14.3284 5 15 5.67157 15 6.5V6.5C15 7.32843 14.3284 8 13.5 8H6.5C5.67157 8 5 8.67157 5 9.5V10.5C5 11.3284 5.67157 12 6.5 12H12" stroke="#0F67FE" stroke-width="2"/>
<path d="M12 22V20.5C12 19.6716 11.3284 19 10.5 19H7.5C6.67157 19 6 18.3284 6 17.5V17.5C6 16.6716 6.67157 16 7.5 16H17.5C18.3284 16 19 15.3284 19 14.5V13.5C19 12.6716 18.3284 12 17.5 12H12" stroke="#090E1D" stroke-width="2"/>
</svg>
