<svg width="24" height="24" viewBox="0 0 24 24" fill="none" xmlns="http://www.w3.org/2000/svg">
<path d="M13.3334 13.3333L11 15.6666C10.4477 16.2189 10.4477 17.1144 11 17.6667V17.6667C11.5523 18.2189 11.5523 19.1144 11 19.6667L9.72735 20.9393C9.14156 21.5251 8.19182 21.5251 7.60603 20.9393L7.10602 20.4393C6.82472 20.158 6.66668 19.7765 6.66668 19.3787V18.8333C6.66668 18.0049 5.99511 17.3333 5.16668 17.3333L4.62133 17.3333C4.2235 17.3333 3.84197 17.1753 3.56067 16.894L3.06066 16.394C2.47487 15.8082 2.47487 14.8584 3.06066 14.2727L4.33334 13C4.88563 12.4477 5.78106 12.4477 6.33335 13V13C6.88563 13.5523 7.78107 13.5523 8.33335 13L10.6667 10.6666" stroke="#090E1D" stroke-width="2"/>
<path d="M10.6666 10.6667L13 8.33335C13.5523 7.78107 13.5523 6.88563 13 6.33335V6.33335C12.4477 5.78106 12.4477 4.88563 13 4.33334L14.2727 3.06066C14.8584 2.47487 15.8082 2.47487 16.394 3.06066L16.894 3.56067C17.1753 3.84197 17.3333 4.2235 17.3333 4.62133V5.16668C17.3333 5.99511 18.0049 6.66668 18.8333 6.66668L19.3787 6.66668C19.7765 6.66668 20.158 6.82472 20.4393 7.10602L20.9393 7.60603C21.5251 8.19181 21.5251 9.14156 20.9393 9.72735L19.6667 11C19.1144 11.5523 18.2189 11.5523 17.6667 11V11C17.1144 10.4477 16.2189 10.4477 15.6666 11L13.3333 13.3334" stroke="#0F67FE" stroke-width="2"/>
</svg>
