<svg width="24" height="24" viewBox="0 0 24 24" fill="none" xmlns="http://www.w3.org/2000/svg">
<path d="M19 18L14 13" stroke="#090E1D" stroke-width="2"/>
<path d="M22 8V6C22 4.34315 20.6569 3 19 3H5C3.34315 3 2 4.34315 2 6V9V10.5C2 11.3284 2.67157 12 3.5 12H5.5C6.32843 12 7 11.3284 7 10.5V9" stroke="#090E1D" stroke-width="2"/>
<path d="M7 9V10.5C7 11.3284 7.67157 12 8.5 12H10.5C11.3284 12 12 11.3284 12 10.5V9" stroke="#090E1D" stroke-width="2"/>
<path d="M9 21H7C5.34315 21 4 19.6569 4 18V12" stroke="#090E1D" stroke-width="2"/>
<path d="M17.9393 10.0607L11.0607 16.9393C10.4749 17.5251 10.4749 18.4749 11.0607 19.0607L12.9393 20.9393C13.5251 21.5251 14.4749 21.5251 15.0607 20.9393L21.9393 14.0607C22.5251 13.4749 22.5251 12.5251 21.9393 11.9393L20.0607 10.0607C19.4749 9.47487 18.5251 9.47487 17.9393 10.0607Z" stroke="#0F67FE" stroke-width="2"/>
</svg>
