<svg width="24" height="24" viewBox="0 0 24 24" fill="none" xmlns="http://www.w3.org/2000/svg">
<path d="M8 7V8.5C8 9.32843 8.67157 10 9.5 10H14.5C15.3284 10 16 9.32843 16 8.5V7" stroke="#0F67FE" stroke-width="2" stroke-linejoin="round"/>
<rect x="14" y="12" width="2" height="2" rx="0.5" fill="#090E1D"/>
<rect x="8" y="12" width="2" height="2" rx="0.5" fill="#090E1D"/>
<path d="M20 16V10C20 8.34315 18.6569 7 17 7H7C5.34315 7 4 8.34315 4 10V16C4 17.6569 5.34315 19 7 19H17C18.6569 19 20 17.6569 20 16Z" stroke="#090E1D" stroke-width="2" stroke-linejoin="round"/>
<path d="M20 13H22" stroke="#090E1D" stroke-width="2" stroke-linejoin="round"/>
<path d="M2 13L4 13" stroke="#090E1D" stroke-width="2" stroke-linejoin="round"/>
</svg>
