<svg width="24" height="24" viewBox="0 0 24 24" fill="none" xmlns="http://www.w3.org/2000/svg">
<path d="M6.57542 18.4951C9.03749 18.9875 11.4435 17.4284 12 14.98L13.169 16.0933C13.7635 16.6595 14.1 17.4447 14.1 18.2657V22.48C14.1 22.7561 14.3239 22.98 14.6 22.98H15.6C15.8761 22.98 16.1 22.7561 16.1 22.48V17.2453C16.1 16.118 15.638 15.04 14.8217 14.2625C14.3102 13.7754 14.084 13.06 14.2225 12.3673L14.6 10.48C15.8008 11.8656 17.5989 12.8245 19.6003 12.9627C19.8757 12.9818 20.1 12.7561 20.1 12.48V11.48C20.1 11.2038 19.8755 10.9825 19.6006 10.9567C17.9218 10.799 16.5289 9.85549 15.8 8.57998L14.8 6.97998C14.4 6.37998 13.8 5.97998 13.1 5.97998C13.0291 5.97998 12.9638 5.98557 12.9014 5.9941C12.5035 6.04852 12.1094 6.16061 11.7396 6.31708L10.1518 6.98883C8.30195 7.77146 7.1 9.58508 7.1 11.5937V12.48C7.1 12.7561 7.32386 12.98 7.6 12.98H8.6C8.87614 12.98 9.1 12.7561 9.1 12.48V11.5113C9.1 10.3469 9.81481 9.302 10.9 8.87998L9.88503 14.0183C9.56252 15.6509 7.97265 16.7091 6.34202 16.3763L4.89183 16.0804C4.62051 16.025 4.35586 16.2007 4.30156 16.4722L4.09806 17.4897C4.0439 17.7605 4.21951 18.0239 4.49029 18.078L6.57542 18.4951Z" fill="#090E1D"/>
<rect x="12" y="1" width="4" height="4" rx="1.5" fill="#0F67FE"/>
</svg>
