<svg width="24" height="24" viewBox="0 0 24 24" fill="none" xmlns="http://www.w3.org/2000/svg">
<path d="M18.4672 16.6788C18.8189 15.8295 19 14.9193 19 14C19 12.6982 18.5996 11.428 17.8531 10.3615L14.4577 5.51099C13.2634 3.80484 10.7366 3.80485 9.5423 5.511L6.14692 10.3615C5.40041 11.428 5 12.6982 5 14C5 14.9193 5.18106 15.8295 5.53284 16.6788C5.88463 17.5281 6.40024 18.2997 7.05025 18.9497C7.70026 19.5998 8.47194 20.1154 9.32122 20.4672C10.1705 20.8189 11.0807 21 12 21C12.9193 21 13.8295 20.8189 14.6788 20.4672C15.5281 20.1154 16.2997 19.5998 16.9497 18.9497C17.5998 18.2997 18.1154 17.5281 18.4672 16.6788Z" stroke="#090E1D" stroke-width="2"/>
<rect x="11" y="10" width="2" height="2" rx="0.5" fill="#0F67FE"/>
<rect x="11" y="16" width="2" height="2" rx="0.5" fill="#0F67FE"/>
<rect x="8" y="13" width="2" height="2" rx="0.5" fill="#0F67FE"/>
<rect x="14" y="13" width="2" height="2" rx="0.5" fill="#0F67FE"/>
</svg>
