<svg width="24" height="24" viewBox="0 0 24 24" fill="none" xmlns="http://www.w3.org/2000/svg">
<path d="M14.7716 18.1481C14.9224 17.7841 15 17.394 15 17C15 16.3597 14.7456 15.7456 14.2929 15.2929L13.0607 14.0607C12.4749 13.4749 11.5251 13.4749 10.9393 14.0607L9.70711 15.2929C9.25435 15.7456 9 16.3597 9 17C9 17.394 9.0776 17.7841 9.22836 18.1481C9.37913 18.512 9.6001 18.8427 9.87868 19.1213C10.1573 19.3999 10.488 19.6209 10.8519 19.7716C11.2159 19.9224 11.606 20 12 20C12.394 20 12.7841 19.9224 13.1481 19.7716C13.512 19.6209 13.8427 19.3999 14.1213 19.1213C14.3999 18.8427 14.6209 18.512 14.7716 18.1481Z" stroke="#0F67FE" stroke-width="2"/>
<path d="M11 3.1374V8.5C11 9.32843 11.6716 10 12.5 10H13.5C14.3284 10 15 9.32843 15 8.5V6.23529C15 6.10534 15.1053 6 15.2353 6C17.3145 6 19 7.68552 19 9.76471V13C19 16.866 15.866 20 12 20C8.13401 20 5 16.866 5 13V8.8626C5 5.62477 7.62477 3 10.8626 3C10.9385 3 11 3.06152 11 3.1374Z" stroke="#090E1D" stroke-width="2"/>
</svg>
