<svg width="24" height="24" viewBox="0 0 24 24" fill="none" xmlns="http://www.w3.org/2000/svg">
<path d="M2 3H11.3486C11.7084 3 12 3.29164 12 3.65139V3.65139C12 3.86918 11.8912 4.07257 11.7099 4.19338L3.29006 9.80662C3.10885 9.92744 3 10.1308 3 10.3486V10.3486C3 10.7084 3.29164 11 3.65139 11H13" stroke="#090E1D" stroke-width="2"/>
<path d="M14 11H20.3486C20.7084 11 21 11.2916 21 11.6514V11.6514C21 11.8692 20.8912 12.0726 20.7099 12.1934L15.2901 15.8066C15.1088 15.9274 15 16.1308 15 16.3486V16.3486C15 16.7084 15.2916 17 15.6514 17H22" stroke="#0F67FE" stroke-width="2"/>
<path d="M7 17H12.3615C12.7141 17 13 17.2859 13 17.6385V17.6385C13 17.8628 12.8823 18.0706 12.69 18.186L8.30999 20.814C8.11767 20.9294 8 21.1372 8 21.3615V21.3615C8 21.7141 8.28586 22 8.63849 22H14" stroke="#090E1D" stroke-width="2"/>
</svg>
