<svg width="24" height="24" viewBox="0 0 24 24" fill="none" xmlns="http://www.w3.org/2000/svg">
<path d="M5 17H9.0416C9.10289 16.6683 9.23099 16.3507 9.41987 16.0674L10.6641 14.2011C10.8831 13.8725 11 13.4865 11 13.0917V10C11 8.89543 10.1046 8 9 8H8.24264C7.71221 8 7.2035 8.21071 6.82843 8.58579L5.58579 9.82843C5.21071 10.2035 5 10.7122 5 11.2426V17Z" stroke="#090E1D" stroke-width="2"/>
<path d="M4 19H10V21.5C10 22.3284 9.32843 23 8.5 23H5.5C4.67157 23 4 22.3284 4 21.5V19Z" fill="#090E1D"/>
<path d="M20 5.24264V12H16V11.9083C16 11.1186 15.7662 10.3466 15.3282 9.68953L14.3359 8.20107C14.1169 7.87254 14 7.48652 14 7.09167V4C14 2.89543 14.8954 2 16 2H16.7574C17.2878 2 17.7965 2.21071 18.1716 2.58579L19.4142 3.82843C19.7893 4.2035 20 4.71221 20 5.24264Z" stroke="#0F67FE" stroke-width="2"/>
<path d="M21 14H15V16.5C15 17.3284 15.6716 18 16.5 18H19.5C20.3284 18 21 17.3284 21 16.5V14Z" fill="#0F67FE"/>
</svg>
