<svg width="24" height="24" viewBox="0 0 24 24" fill="none" xmlns="http://www.w3.org/2000/svg">
<path d="M19.9865 10.8531L19.4865 9.9871L19.9865 10.8531ZM19.7221 11.0057L19.2221 10.1397L19.7221 11.0057ZM19.7222 12.9944L19.2222 13.8604L19.7222 12.9944ZM20.5392 15.2097L19.6732 14.7097L20.5392 15.2097ZM19.9865 13.147L19.4865 14.013L19.9865 13.147ZM16.9267 18.3086L16.4267 19.1746L16.9267 18.3086ZM19.0837 17.7306L18.2177 17.2306L19.0837 17.7306ZM16.5942 18.1166L17.0942 17.2506L16.5942 18.1166ZM4.85727 17.6286L3.99124 18.1286L4.85727 17.6286ZM7.17526 18.2497L6.67526 17.3837L7.17526 18.2497ZM3.59137 15.436L2.72534 15.936L3.59137 15.436ZM4.79028 12.6984L4.29028 11.8324L4.79028 12.6984ZM4.79037 11.3017L4.29037 12.1677L4.79037 11.3017ZM4.85731 6.37146L3.99128 5.87146L4.85731 6.37146ZM7.66297 6.032L7.16297 6.89802L7.66297 6.032ZM7.66309 17.968L7.16309 17.102L7.66309 17.968ZM16.9267 5.69146L16.4267 4.82544L16.9267 5.69146ZM10.7128 4H13.431V2H10.7128V4ZM9.99998 5.259V4.71286H7.99998V5.259H9.99998ZM6.6752 6.61641L7.16297 6.89802L8.16297 5.16597L7.6752 4.88436L6.6752 6.61641ZM4.45739 9.06413L5.72333 6.87146L3.99128 5.87146L2.72534 8.06413L4.45739 9.06413ZM5.29037 10.4357L4.73971 10.1178L3.73971 11.8498L4.29037 12.1677L5.29037 10.4357ZM4.73971 13.8823L5.29028 13.5645L4.29028 11.8324L3.73971 12.1503L4.73971 13.8823ZM5.7233 17.1286L4.45739 14.936L2.72534 15.936L3.99124 18.1286L5.7233 17.1286ZM7.16309 17.102L6.67526 17.3837L7.67526 19.1157L8.16309 18.8341L7.16309 17.102ZM9.99998 19.2871V18.741H7.99998V19.2871H9.99998ZM13.431 20H10.7128V22H13.431V20ZM14 19.036V19.431H16V19.036H14ZM17.4267 17.4426L17.0942 17.2506L16.0942 18.9827L16.4267 19.1746L17.4267 17.4426ZM19.6732 14.7097L18.2177 17.2306L19.9497 18.2306L21.4052 15.7097L19.6732 14.7097ZM19.2222 13.8604L19.4865 14.013L20.4865 12.281L20.2222 12.1284L19.2222 13.8604ZM19.4865 9.9871L19.2221 10.1397L20.2221 11.8718L20.4865 11.7192L19.4865 9.9871ZM18.2176 6.76941L19.6731 9.29044L21.4052 8.29044L19.9497 5.76941L18.2176 6.76941ZM17.0943 6.74941L17.4267 6.55749L16.4267 4.82544L16.0943 5.01736L17.0943 6.74941ZM14 4.56898V4.96398H16V4.56898H14ZM16.048 4.99661C16.0223 4.98236 16.007 4.96525 16.0006 4.95516C15.9954 4.94691 16 4.9505 16 4.96398H14C14 5.75975 14.474 6.41128 15.0794 6.74641L16.048 4.99661ZM20.4865 11.7192C21.687 11.026 22.0983 9.49095 21.4052 8.29044L19.6731 9.29044C19.814 9.53436 19.7304 9.84627 19.4865 9.9871L20.4865 11.7192ZM20.1785 12C20.1785 11.9555 20.1895 11.92 20.2014 11.8977C20.2122 11.8773 20.2209 11.8725 20.2221 11.8718L19.2221 10.1397C18.5191 10.5456 18.1785 11.2917 18.1785 12H20.1785ZM20.2222 12.1284C20.2209 12.1276 20.2122 12.1228 20.2014 12.1024C20.1895 12.0801 20.1785 12.0446 20.1785 12H18.1785C18.1785 12.7084 18.5191 13.4545 19.2222 13.8604L20.2222 12.1284ZM21.4052 15.7097C22.0983 14.5092 21.687 12.9741 20.4865 12.281L19.4865 14.013C19.7304 14.1538 19.814 14.4657 19.6732 14.7097L21.4052 15.7097ZM16.4267 19.1746C17.6602 19.8868 19.2375 19.4642 19.9497 18.2306L18.2177 17.2306C18.0578 17.5076 17.7036 17.6025 17.4267 17.4426L16.4267 19.1746ZM16.048 19.0034C16.072 18.9901 16.0916 18.987 16.1009 18.9868C16.105 18.9867 16.1058 18.9872 16.1038 18.9867C16.1015 18.9861 16.0979 18.9848 16.0942 18.9827L17.0942 17.2506C16.4338 16.8693 15.6668 16.9284 15.0794 17.2536L16.048 19.0034ZM16 19.036C16 19.0495 15.9954 19.0531 16.0006 19.0448C16.007 19.0348 16.0222 19.0177 16.048 19.0034L15.0794 17.2536C14.474 17.5887 14 18.2402 14 19.036H16ZM13.431 22C14.8498 22 16 20.8498 16 19.431H14C14 19.7453 13.7452 20 13.431 20V22ZM7.99998 19.2871C7.99998 20.7854 9.21457 22 10.7128 22V20C10.3191 20 9.99998 19.6808 9.99998 19.2871H7.99998ZM8.04259 18.8492C8.03895 18.8469 8.03058 18.841 8.02141 18.8257C8.0114 18.809 7.99998 18.7795 7.99998 18.741H9.99998C9.99998 18.0426 9.60529 17.457 9.07786 17.1379L8.04259 18.8492ZM3.99124 18.1286C4.73597 19.4185 6.38536 19.8604 7.67526 19.1157L6.67526 17.3837C6.34194 17.5761 5.91574 17.4619 5.7233 17.1286L3.99124 18.1286ZM3.73971 12.1503C2.41421 12.9156 1.96007 14.6105 2.72534 15.936L4.45739 14.936C4.2444 14.5671 4.3708 14.0953 4.73971 13.8823L3.73971 12.1503ZM4.17849 12C4.17849 11.965 4.19709 11.8862 4.29028 11.8324L5.29028 13.5645C5.87752 13.2254 6.17849 12.6054 6.17849 12H4.17849ZM4.29037 12.1677C4.19713 12.1139 4.17849 12.035 4.17849 12H6.17849C6.17849 11.3946 5.87755 10.7747 5.29037 10.4357L4.29037 12.1677ZM2.72534 8.06413C1.96007 9.38963 2.41422 11.0845 3.73971 11.8498L4.73971 10.1178C4.3708 9.90477 4.2444 9.43304 4.45739 9.06413L2.72534 8.06413ZM7.6752 4.88436C6.38533 4.13965 4.73599 4.5816 3.99128 5.87146L5.72333 6.87146C5.91575 6.53818 6.34192 6.42399 6.6752 6.61641L7.6752 4.88436ZM8.04255 5.15087C8.04665 5.14839 8.05694 5.1433 8.07629 5.14259C8.09746 5.14182 8.1297 5.14676 8.16297 5.16597L7.16297 6.89802C7.79164 7.26099 8.52643 7.19566 9.07782 6.86207L8.04255 5.15087ZM7.99998 5.259C7.99998 5.22042 8.01139 5.19098 8.0214 5.17429C8.03056 5.15901 8.03892 5.15307 8.04255 5.15087L9.07782 6.86207C9.60527 6.54296 9.99998 5.95738 9.99998 5.259H7.99998ZM16.0943 5.01736C16.098 5.01521 16.1016 5.01393 16.1039 5.01337C16.1059 5.01287 16.1051 5.01337 16.101 5.01328C16.0917 5.01309 16.072 5.00991 16.048 4.99661L15.0794 6.74641C15.6669 7.0716 16.4339 7.13073 17.0943 6.74941L16.0943 5.01736ZM13.431 4C13.7452 4 14 4.25474 14 4.56898H16C16 3.15017 14.8498 2 13.431 2V4ZM8.16309 18.8341C8.12982 18.8533 8.09756 18.8582 8.07638 18.8574C8.05702 18.8567 8.04671 18.8516 8.04259 18.8492L9.07786 17.1379C8.52649 16.8044 7.79174 16.7391 7.16309 17.102L8.16309 18.8341ZM19.9497 5.76941C19.2375 4.5359 17.6602 4.11327 16.4267 4.82544L17.4267 6.55749C17.7037 6.39761 18.0578 6.49249 18.2176 6.76941L19.9497 5.76941ZM10.7128 2C9.21457 2 7.99998 3.21459 7.99998 4.71286H9.99998C9.99998 4.31916 10.3191 4 10.7128 4V2Z" fill="#090E1D"/>
<rect x="9" y="9" width="6" height="6" rx="3" stroke="#0F67FE" stroke-width="2"/>
</svg>
